<?xml version="1.0" encoding="utf-8" ?>
<!-- Generated by AutoXChange 64-bit  V23.02.78 from Tailor Made Software -->
<!-- www.tailormade.com -->
<!DOCTYPE svg PUBLIC '-//W3C//DTD SVG 1.0//EN' 
'http://www.w3.org/TR/2001/REC-SVG-20010904/DTD/svg10.dtd'>
<svg id="tmsSVG33" contentScriptType="text/ecmascript" xmlns:xlink="http://www.w3.org/1999/xlink" zoomAndPan="magnify" 
contentStyleType="text/css" preserveAspectRatio="xMidYMid meet" 
width="2414.29" height="1567" viewBox="0 0 2414.29 1567" 
version="1.1" xmlns="http://www.w3.org/2000/svg" xmlns:cvjs="http://www.tailormade.com/" stroke-linecap="butt" stroke-linejoin="round" fill-rule="evenodd" >
<defs>
	<style id="cv_styles" type = "text/css">
	    <![CDATA[
	   #tmsSVG33 { background-color: white; opacity: 1.}
		:root {
		    --tmsMinLineWidth: 0.5;
		    --tmsMinDashLength: 0.5;
		    --tmsHLWidth: 0.5;
		    --tmsNumberOfLayouts: 1;
		    --tmsNumberOfSVGViewports: 0;
         --tmsMinFixedLineWidth: 0.5;
		    --tmsbPostFix: 0;
		}
		.tmsPoints {
		    fill: none;
		    stroke-width: var(--tmsMinLineWidth);
		    r: calc(var(--tmsMinLineWidth)/2.0);
		}
		.ZWhl {
		    stroke-width: var(--tmsHLWidth);
		}
		.ZW {
		    stroke-width: var(--tmsMinLineWidth);
		}
		.ZW6 {
		    stroke-width: calc(var(--tmsMinLineWidth)*6);
		}
		.ZW10 {
		    stroke-width: calc(var(--tmsMinLineWidth)*10);
		}
		.ZW20 {
		    stroke-width: calc(var(--tmsMinLineWidth)*20);
		}
		.ZW100 {
		    stroke-width: calc(var(--tmsMinLineWidth)*100);
		}
		.nZW {
		}
		.sLW_0_2{
		    stroke-width: calc(var(--tmsMinFixedLineWidth)*0.4);
		}
		.sLW_0_5{
		    stroke-width: var(--tmsMinFixedLineWidth);
		}
		.hyperlinks:hover {
		    stroke-width: 3;
		}
		.hyperimage image{
			opacity: 0;
		}
		.hyperimage:hover image{
			opacity: 1;
		}
		.hyperimage:hover path{
			stroke-width: 3;
		}
		.hyperimage:visited{
			color: red;
		}
		.sLt_CENTER {
		    stroke-dasharray: calc(var(--tmsMinDashLength)*2.46816) calc(var(--tmsMinDashLength)*0.493632) calc(var(--tmsMinDashLength)*0.493632) calc(var(--tmsMinDashLength)*0.493632);
		}
	]]></style>
	</defs>
<metadata>
<text id="cadviewer_worldUnits">
{ "globalOrigin": { "x": 17.448914, "y" : -258.016026}, 
						"units": "in",
						"measurementType": "English",
						"lengthType": "Architectural",
						"lengthPrecision": 4,
						"blockUnitsFormat": "Undefined",
						"svgToWorldUnits": 0.611359,
						"worldToSVGUnits": 1.635699
}
</text>
<text id="cadviewer_drawingCoordinates">
{ "DWG": 
    { "lowerLeft": { "x": 17.448914, "y" : -258.016026}, 
      "upperRight": { "x": 1493.448914, "y" : 699.983974} 
    },
 "SVG": 
    { "lowerLeft": { "x": 42.853862, "y" : 1567.000000}, 
      "upperRight": { "x": 2457.146138, "y" : 0.000000} 
    },
 "Drawing Height": 1567
}
</text>
<text id="cadviewer_vqBuilding"></text>
<text id="cadviewer_vqFloor"></text>
<text id="cadviewer_multiPages">
{ "multiPages": 1, 
                   "currentPage":1,
                   "pages" : [
                        { "fileName":"hq17_.dwg__ModelSpace", "pageName":"ModelSpace"}
                   ]
}
</text>
</metadata>
<g id="cv_main_drawing">
<g id="layer_WA_2D_EXT" class="layer_WA_2D_EXT"  cvjs:layerName="WA-EXT" cvjs:plottable="YES"
 cvjs:status="ON" visibility="visible">
<g id="cvclr_1" stroke="none" fill="#91A552" opacity="1.">
<path id="cv_2" d="M650.6,116.13h-31.9v4.91h-11.45v11.45h3.27v8.18h48.25v-8.18h3.27v-11.45h-11.45v-4.91 Z "/>
<path id="cv_3" d="M285.84,248.63v8.18h-48.25v-8.18h-3.27v-11.45h11.45v-4.91h31.9v4.91h11.45v11.45h-3.27 Z "/>
<path id="cv_4" d="M0,868.97v-31.9h4.91v-11.45h11.45v3.27h8.18v48.25h-8.18v3.27h-11.45v-11.45h-4.91 Z "/>
<path id="cv_5" d="M496.84,1421.42v4.91h15.54v8.18h3.27v11.45h-53.98v-4.91h-29.85v-22.9h-4.91v-93.23h-9.41v4.91h-36.8v-11.45h3.27v-8.18h11.86v-4.91h50.71v93.23h35.99v22.9h14.31 Z "/>
<path id="cv_6" d="M767.96,1421.42h51.52v88.33h34.35v22.9h14.31v4.91h22.08v8.18h3.27v11.45h-58.89v-4.91h-29.85v-22.9h-4.91v-88.33h-10.22v4.91h-35.99v-11.45h3.27v-8.18h11.04v-4.91 Z "/>
<path id="cv_7" d="M1043.99,1542.46v-4.91h-55.61v8.18h-3.27v11.45h25.35v4.91h58.89v-11.45h-3.27v-8.18h-22.08 Z "/>
<path id="cv_8" d="M1230.05,1542.46v-32.71h-45.8v32.71h-20.04v8.18h-3.27v11.45h23.31v4.91h45.8v-4.91h23.31v-11.45h-3.27v-8.18h-20.04 Z "/>
<path id="cv_9" d="M1648.78,1405.07h-53.98V1509.75h-34.35v22.9h-14.31v4.91h-22.08v8.18h-3.27v11.45h58.89v-4.91h29.85v-22.9h4.91V1424.69h10.22v4.91h39.26v-11.45h-3.27v-8.18h-11.86v-4.91 Z "/>
<path id="cv_10" d="M1403.84,1562.09h-58.89v-11.45h3.27v-8.18h22.08v-4.91h55.61v8.18h3.27v11.45h-25.35v4.91 Z "/>
<path id="cv_11" d="M2171.8,1302.02h-31.9v-4.91h-11.45v-11.45h3.27v-8.18h48.25v8.18h3.27v11.45h-11.45v4.91 Z "/>
<path id="cv_12" d="M1967.75,1382.17V1272.57h53.98v4.91h11.86v8.18h3.27v11.45h-39.26v-4.91h-10.22V1401.79h-4.91v22.9h-29.85v4.91h-50.71v-11.45h3.27v-8.18h14.72v-4.91h14.31v-22.9h33.53 Z "/>
<path id="cv_13" d="M2274.85,1285.66v11.45h49.07v-4.91h31.49v-22.9h4.91v-70.34h-11.45v3.27h-8.18v47.44h-34.35v22.9h-14.31v4.91h-13.9v8.18h-3.27 Z "/>
<path id="cv_14" d="M1230.05,57.25h-45.8v-32.71h-20.04v-8.18h-3.27v-11.45h23.31v-4.91h45.8v4.91h23.31v11.45h-3.27v8.18h-20.04v32.71 Z "/>
<path id="cv_15" d="M1798.86,132.49h-31.9v4.91h-11.45v11.45h3.27v8.18h48.25v-8.18h3.27v-11.45h-11.45v-4.91 Z "/>
<path id="cv_16" d="M2171.8,264.98h-31.9v4.91h-11.45v11.45h3.27v8.18h48.25v-8.18h3.27v-11.45h-11.45v-4.91 Z "/>
<path id="cv_17" d="M2274.85,281.34v-11.45h49.07v4.91h31.49v22.9h4.91v70.34h-11.45v-3.27h-8.18v-47.44h-34.35v-22.9h-14.31v-4.91h-13.9v-8.18h-3.27 Z "/>
<path id="cv_18" d="M2414.29,855.88h-4.91v11.45h-11.45v-3.27h-8.18v-35.17h8.18v-3.27h11.45v11.45h4.91v18.81 Z "/>
<path id="cv_19" d="M1010.45,4.91h58.89v11.45h-3.27v8.18h-22.08v4.91h-55.61v-8.18h-3.27v-11.45h25.35v-4.91 Z "/>
<path id="cv_20" d="M1403.84,4.91h-58.89v11.45h3.27v8.18h22.08v4.91h55.61v-8.18h3.27v-11.45h-25.35v-4.91 Z "/>
<path id="cv_21" d="M1967.75,184.83V294.43h53.98v-4.91h11.86v-8.18h3.27v-11.45h-39.26v4.91h-10.22V165.21h-4.91v-22.9h-29.85v-4.91h-50.71v11.45h3.27v8.18h14.72v4.91h14.31v22.9h33.53 Z "/>
<path id="cv_22" d="M2373.38,572.9v-20.04h-68.68v-39.26h35.99v-50.71h8.18v-3.27h11.45v49.07h21.26v4.91h22.9v31.49h4.91v70.34h-11.45v-3.27h-8.18v-39.26h-16.38 Z "/>
<path id="cv_23" d="M2373.4,1014.13h-68.7v39.26h35.99v50.71h8.18v3.27h11.45v-49.07h21.26v-4.91h22.9v-31.49h4.91v-70.34h-11.45v3.27h-8.18v39.26h-16.36v20.04 Z "/>
<path id="cv_24" d="M2389.76,702.94v35.17h8.18v3.27h11.45v-11.45h4.91v-18.81h-4.91v-11.45h-11.45v3.27h-8.18 Z "/>
<path id="cv_25" d="M1977.56,1009.23v49.07h-49.07v-49.07h49.07 Z "/>
<path id="cv_26" d="M1977.56,508.7h-49.07v49.07h49.07v-49.07 Z "/>
<path id="cv_27" d="M480.9,562.68v-58.89h-39.26v58.89h39.26 Z "/>
<path id="cv_28" d="M1226.77,503.8h-39.26v58.89h39.26v-58.89 Z "/>
<path id="cv_29" d="M1604.62,503.8v53.98h-49.07v-53.98h49.07 Z "/>
<path id="cv_30" d="M1555.55,1009.23h45.8v49.07h-45.8v-49.07 Z "/>
<path id="cv_31" d="M853.84,503.8h-39.26v58.89h39.26v-58.89 Z "/>
<path id="cv_32" d="M814.58,1004.32h39.26v58.89h-39.26v-58.89 Z "/>
<path id="cv_33" d="M480.9,1004.32v58.89h-39.26v-58.89h39.26 Z "/>
<path id="cv_34" d="M1187.52,1004.32h39.26v58.89h-39.26v-58.89 Z "/>
</g>
<g id="cvclr_35" stroke="#000" fill="none">
<path id="cv_36" class="ZW" d="M53.98,1058.3l0,68.7M73.61,1123.73l-0,-70.34M53.98,1127h11.45l0,-3.27h8.18M9.81,1021.9l0,31.49h22.9l0,4.91h21.26M47.44,994.1h-22.9M4.91,964.65l0,57.25M24.54,994.1l0,-26.17M4.91,1021.9h4.91M16.36,967.93l0,-3.27M24.54,967.93h-8.18M16.36,964.65h-11.45M47.44,1014.13l0,-20.04M53.98,508.7l0,-68.7M73.61,443.27l-0,70.34M4.91,602.35l0,-57.25M47.44,552.87l0,20.04h-22.9l0,26.17M16.36,599.07l0,3.27h-11.45M24.54,599.07h-8.18M9.81,513.61h22.9M4.91,545.1h4.91l0,-31.49M32.71,513.61l0,-4.91h21.26M53.98,440h11.45l0,3.27h8.18M1230.05,1567h-45.8M1230.05,1509.75h-45.8M1184.25,1542.46l0,-32.71M1164.21,1542.46h20.04M1164.21,1550.64l0,-8.18M1160.94,1550.64h3.27M1160.94,1562.09l0,-11.45M1160.94,1562.09h23.31M1184.25,1567l0,-4.91M1250.08,1550.64l0,-8.18h-20.04M1253.35,1550.64h-3.27M1253.35,1562.09l0,-11.45M1253.35,1562.09h-23.31M1230.05,1567l0,-4.91M2360.31,1058.3l0,49.07M2348.86,1107.37l0,-3.27M2360.31,1107.37h-11.45M2404.48,1021.9l0,31.49M2340.69,1104.1l0,-50.71M2348.86,1104.1h-8.18M2404.48,1053.39h-22.9M2381.58,1058.3h-21.26M2381.58,1053.39l0,4.91M2409.39,951.57l0,70.34M2389.76,994.1l0,-39.26M2373.4,994.1h16.36M2409.39,1021.9h-4.91M2397.94,951.57h11.45M2397.94,954.84l0,-3.27M2389.76,954.84h8.18M1604.62,503.8h-49.07M1184.25,0l0,4.91M1230.05,0l0,4.91M1184.25,24.54l0,32.71M1164.21,24.54h20.04M1164.21,16.36l0,8.18M1160.94,16.36h3.27M1160.94,4.91h23.31M1160.94,4.91l0,11.45M1230.05,24.54l0,32.71M1250.08,16.36l0,8.18h-20.04M1253.35,16.36h-3.27M1253.35,4.91h-23.31M1253.35,4.91l0,11.45M1230.05,0h-45.8M2340.69,462.9l0,50.71M2360.31,508.7l0,-49.07M2409.39,615.43l0,-70.34M2389.76,572.9l0,39.26h8.18l0,3.27h11.45M2381.58,513.61l0,-4.91M2404.48,513.61h-22.9M2409.39,545.1h-4.91l0,-31.49M2381.58,508.7h-21.26M2360.31,459.63h-11.45M2348.86,462.9h-8.18M2348.86,459.63l0,3.27M1230.05,1542.46l0,-32.71M1230.05,57.25h-45.8M1546.14,29.44h-22.08l0,-8.18h-3.27l0,-11.45h58.89l0,4.91h29.85l0,22.9h4.91L1614.44,142.31h10.22l0,-4.91h39.26l0,11.45h-3.27l0,8.18h-11.86l0,4.91M1594.81,57.25h-34.35l0,-22.9h-14.31l0,-4.91M1928.49,557.77h49.07M1928.49,557.77l0,-49.07M1967.75,184.83h-33.53l0,-22.9h-14.31l0,-4.91M2304.7,552.87l0,-39.26M2340.69,513.61h-35.99M2389.76,572.9h-16.38M1928.49,1009.23h49.07M1977.56,1058.3h-49.07l0,-49.07M1919.9,1409.97h-14.72l0,8.18h-3.27l0,11.45h50.71l0,-4.91h29.85l0,-22.9h4.91L1987.37,1292.2h10.22l0,4.91h39.26l0,-11.45h-3.27l0,-8.18h-11.86l0,-4.91h-53.98M1967.75,1382.17h-33.53l0,22.9h-14.31l0,4.91M1601.35,1009.23l0,49.07M1069.34,1562.09l0,-11.45h-3.27l0,-8.18h-22.08M1043.99,1537.56h-55.61l0,8.18h-3.27l0,11.45h25.35l0,4.91h58.89M480.9,1063.2h-39.26M1555.55,503.8l-0,53.98M868.15,29.44h22.08l0,-8.18h3.27l0,-11.45h-58.89l0,4.91h-29.85l0,22.9h-4.91l0,88.33h-10.22l0,-4.91h-35.99l0,11.45h3.27l0,8.18h11.04l0,4.91h51.52M819.49,57.25h34.35l0,-22.9h14.31l0,-4.91M618.7,116.13l0,4.91h-11.45l0,11.45h3.27l-0,8.18h48.25l0,-8.18h3.27l0,-11.45h-11.45l0,-4.91h-31.9M1344.95,4.91l0,11.45h3.27l0,8.18h22.08l0,4.91h55.61l0,-8.18h3.27l0,-11.45h-25.35l0,-4.91h-58.89M1648.78,161.93h-53.98M1977.56,508.7l0,49.07M1919.9,157.03h-14.72l0,-8.18h-3.27l0,-11.45h50.71l0,4.91h29.85l0,22.9h4.91L1987.37,274.8h10.22l0,-4.91h39.26l0,11.45h-3.27l0,8.18h-11.86l0,4.91h-53.98M1967.75,184.83L1967.75,294.43M1977.56,508.7h-49.07M1604.62,557.77h-49.07M2373.38,552.87h-68.68M2373.38,572.9l0,-20.04M2373.4,994.1l0,20.04M2304.7,1014.13l0,39.26h35.99M1977.56,1009.23l0,49.07M1967.75,1382.17L1967.75,1272.57M1069.34,4.91l0,11.45h-3.27l0,8.18h-22.08l0,4.91h-55.61M496.84,140.67h15.54l0,-8.18h3.27l0,-11.45h-53.98l0,4.91h-29.85l0,22.9h-4.91l0,93.23h-9.41l0,-4.91h-36.8l0,11.45h3.27l0,8.18h11.86l0,4.91M446.55,261.71l0,-93.23h35.99l0,-22.9h14.31l0,-4.91M1601.35,1058.3h-45.8l0,-49.07M496.84,1426.33h15.54l0,8.18h3.27l0,11.45h-53.98l0,-4.91h-29.85l0,-22.9h-4.91l0,-93.23h-9.41l0,4.91h-36.8l0,-11.45h3.27l0,-8.18h11.86l0,-4.91h50.71l0,93.23h35.99l0,22.9h14.31l0,4.91M1604.62,503.8l0,53.98M1043.99,1542.46l0,-4.91M395.84,261.71h50.71M2373.4,1014.13h-68.7M618.7,1450.87l0,-4.91h-11.45l0,-11.45h3.27l0,-8.18h48.25l0,8.18h3.27l0,11.45h-11.45l0,4.91h-31.9M142.71,1329.82h-52.34l0,-4.91h-31.49l0,-22.9h-4.91l0,-83.42h11.45l0,3.27h8.18l0,60.52h37.62l0,22.9h14.31l0,4.91h13.9l0,8.18h3.27l0,11.45M47.44,1014.13h62.16l0,39.26M73.61,1053.39h35.99M245.76,1334.73l0,-4.91h-11.45l0,-11.45h3.27l0,-8.18h48.25l0,8.18h3.27l0,11.45h-11.45l0,4.91h-31.9M441.64,1063.2l0,-58.89h39.26l0,58.89M-0,837.07h4.91l0,-11.45h11.45l0,3.27h8.18l0,48.25h-8.18l0,3.27h-11.45l0,-11.45h-4.91l0,-31.9M24.54,689.86h-8.18l0,-3.27h-11.45l0,11.45h-4.91l0,31.9h4.91l0,11.45h11.45l0,-3.27h8.18l0,-48.25M109.59,552.87l0,-39.26M73.61,513.61h35.99M47.44,552.87h62.16M480.9,503.8h-39.26l0,58.89h39.26l-0,-58.89M141.08,237.18h-50.71l0,4.91h-31.49l0,22.9h-4.91l0,83.42h11.45l0,-3.27h8.18l0,-60.52h35.99l0,-22.9h14.31l0,-4.91h13.9l0,-8.18h3.27l0,-11.45M285.84,256.8h-48.25l0,-8.18h-3.27l0,-11.45h11.45l0,-4.91h31.9l0,4.91h11.45l0,11.45h-3.27l0,8.18M1766.96,1434.51l0,-4.91h-11.45l0,-11.45h3.27l0,-8.18h48.25l0,8.18h3.27l0,11.45h-11.45l0,4.91h-31.9M819.49,1421.42l0,88.33h34.35l0,22.9h14.31l0,4.91h22.08l0,8.18h3.27l0,11.45h-58.89l0,-4.91h-29.85l0,-22.9h-4.91l0,-88.33h-10.22l0,4.91h-35.99l0,-11.45h3.27l0,-8.18h11.04l0,-4.91h51.52M853.84,1063.2h-39.26M853.84,1004.32l0,58.89M814.58,1063.2l0,-58.89h39.26M1226.77,1004.32l0,58.89h-39.26l0,-58.89h39.26M1344.95,1562.09l0,-11.45h3.27l0,-8.18h22.08l0,-4.91h55.61l0,8.18h3.27l0,11.45h-25.35l0,4.91h-58.89M1594.81,1405.07L1594.81,1509.75h-34.35l0,22.9h-14.31l0,4.91h-22.08l0,8.18h-3.27l0,11.45h58.89l0,-4.91h29.85l0,-22.9h4.91L1614.44,1424.69h10.22l0,4.91h39.26l0,-11.45h-3.27l0,-8.18h-11.86l0,-4.91h-53.98M1555.55,1009.23h45.8M2274.85,1297.11h49.07l0,-4.91h31.49l0,-22.9h4.91l0,-70.34h-11.45l0,3.27h-8.18l0,47.44h-34.35l0,22.9h-14.31l0,4.91h-13.9l0,8.18h-3.27l0,11.45M2139.9,1302.02l0,-4.91h-11.45l0,-11.45h3.27l0,-8.18h48.25l0,8.18h3.27l0,11.45h-11.45l0,4.91h-31.9M1766.96,132.49l0,4.91h-11.45l0,11.45h3.27l0,8.18h48.25l0,-8.18h3.27l0,-11.45h-11.45l0,-4.91h-31.9M814.58,503.8l0,58.89h39.26l0,-58.89h-39.26M1187.52,562.68h39.26l0,-58.89M1187.52,503.8l0,58.89M1226.77,503.8h-39.26M988.37,29.44l0,-8.18h-3.27l0,-11.45h25.35l0,-4.91h58.89M2274.85,269.89h49.07l0,4.91h31.49l0,22.9h4.91l0,70.34h-11.45l0,-3.27h-8.18l0,-47.44h-34.35l0,-22.9h-14.31l0,-4.91h-13.9l0,-8.18h-3.27l0,-11.45M2409.39,855.88l0,11.45h-11.45l0,-3.27h-8.18l-0,-35.17h8.18l0,-3.27h11.45l0,11.45h4.91l0,18.81h-4.91M2397.94,741.38h11.45l0,-11.45h4.91l0,-18.81h-4.91l0,-11.45h-11.45l0,3.27h-8.18l-0,35.17M2139.9,264.98l0,4.91h-11.45l0,11.45h3.27l0,8.18h48.25l0,-8.18h3.27l0,-11.45h-11.45l0,-4.91h-31.9M819.49,145.58l0,-88.33M1594.81,161.93L1594.81,57.25" />
</g>
<g style="font-family: arial, helvetica, sans-serif" stroke="none" fill="#7F0000">
<g font-size="141.030000" stroke="none" fill="#7F0000">
<text id="cv_37" transform="scale(1.111111 1) translate(434.57 1253.6) rotate(330) " >For Demonstration Purposes Only</text>
<text id="cv_38" transform="scale(1.111111 1) translate(869.15 1253.6) rotate(330) " >Tailor Made Software, Ltd</text>
</g>
</g>
</g>
<g id="layer_WA" class="layer_WA"  cvjs:layerName="WA" cvjs:plottable="YES"
 cvjs:status="ON" visibility="visible">
<g id="cvclr_39" stroke="#FF7F00" fill="none">
<path id="cv_40" class="ZW" d="M109.59,1033.76H333.68M323.87,1023.95h9.81M333.68,1033.76l0,-9.81M392.57,1033.76l0,-9.81M402.38,1023.95h-9.81M441.64,1033.76h-49.07M323.87,543.05h9.81l0,-9.81M382.75,543.05l0,-9.81M402.38,543.05h-19.63M1356.81,898h-22.9M1356.81,904.54h-22.9M1239.86,904.54h35.17l0,-6.54M1333.92,904.54l0,-6.54M1356.81,776.01h6.54M1363.36,783.5l0,-7.49M1356.81,819.49l0,-43.48M441.64,1063.2l0,-29.44M1356.81,898l0,-19.63M1142.94,898H1275.03M1356.81,677.87h6.54M1363.36,669l0,8.86M1356.81,677.87l0,-8.86h-22.08M273.98,533.24h59.7M441.64,533.24h-58.89M814.58,1043.58H480.9M844.02,1090.19H608.48M853.84,1080.38H618.29M814.58,1053.39H618.29M898.41,898H770.01M829.3,907.81h-59.29M814.58,523.42H480.9M814.58,513.61H480.9M898.41,669H770.01M829.3,659.19h-59.29M323.87,962.58L323.87,703.35M456.36,1004.32l0,-96.51M466.17,1004.32l0,-96.51M402.38,1023.95L402.38,898M412.2,1023.95L412.2,907.81M258.44,950.34l0,-89.96M314.05,1023.95H109.59M323.78,1033.76H109.59M53.98,1058.3l0,68.7M73.61,1123.73l0,-70.34M53.98,1127h11.45l0,-3.27h8.18M9.81,1021.9l0,31.49h22.9l0,4.91h21.26M47.44,994.1h-22.9M4.91,964.65l0,57.25M24.54,994.1l0,-26.17M4.91,1021.9h4.91M16.36,967.93l0,-3.27M24.54,967.93h-8.18M16.36,964.65h-11.45M47.44,1014.13l0,-20.04M608.48,1053.39H480.9M323.87,1011.65l0,12.29M314.05,950.34h-55.61M314.05,1023.95l0,-12.29h9.81M314.05,962.58l0,-12.24M314.05,962.58h9.81M441.64,1023.95h-29.44M608.48,1053.39l0,36.8M618.29,1053.39l0,26.99M260.89,533.24L260.89,256.8M273.98,533.24L273.98,256.8M258.44,850.56H24.54M258.44,860.38H24.54M314.05,641.19H95.26M314.05,631.38H91.19M24.54,698.03l66.65,-66.65M24.54,711.91l70.72,-70.72M53.98,508.7l0,-68.7M73.61,443.27l0,70.34M4.91,602.35l0,-57.25M47.44,552.87l0,20.04h-22.9l0,26.17M16.36,599.07l0,3.27h-11.45M24.54,599.07h-8.18M9.81,513.61h22.9M4.91,545.1h4.91l0,-31.49M32.71,513.61l0,-4.91h21.26M192.19,533.24h-82.6M192.19,543.05h-82.6M192.19,533.24l0,9.81M53.98,440h11.45l0,3.27h8.18M456.36,562.68l0,96.51M466.17,562.68l0,96.51M323.87,654.28l0,-37.62M402.38,611.75l0,57.25M412.2,611.75l0,47.44M523.83,907.81h-57.66M523.83,898H402.38M525.47,669H402.38M525.47,659.19h-59.29M314.05,812.94L314.05,703.35M268.25,940.53L268.25,822.76M314.05,940.53L314.05,822.76M314.05,940.53h-45.8M314.05,822.76h-45.8M314.05,812.94h-55.61M258.44,850.56l0,-37.62M456.36,907.81h-44.16M314.05,703.35h9.81M314.05,654.28l0,-13.09M314.05,654.28h9.81M456.36,659.19h-44.16M701.31,907.81H595.8M701.31,898H595.8M523.83,907.81l0,-9.81M595.8,907.81l0,-9.81M701.31,907.81l0,-9.81M770.01,907.81l0,-9.81M701.31,659.19H594.17M701.31,669H594.17M525.47,659.19l0,9.81M594.17,659.19l0,9.81M701.31,659.19l0,9.81M770.01,659.19l0,9.81M314.05,557.77l0,-14.72M323.87,557.77l0,-14.72M314.05,631.38l0,-14.72h9.81M314.05,557.77h9.81M314.05,543.05h-62.97M260.89,533.24h-9.81l0,9.81M402.38,611.75h9.81M441.64,543.05h-29.44M402.38,552.87h9.81M402.38,543.05l0,9.81M412.2,543.05l0,9.81M839.11,1004.32l0,-96.51M829.3,1004.32l0,-96.51M1239.86,1038.67L1239.86,904.54M1230.05,1028.85L1230.05,907.81M1212.05,1004.32l0,-96.51M1202.24,1004.32l0,-96.51M1356.81,1038.67L1356.81,904.54M1366.63,1028.85L1366.63,878.37M1629.08,901.41L1629.08,1058.3M1622.54,907.95L1622.54,1009.23M1570.27,1009.23L1570.27,793.31M1580.09,1009.23L1580.09,907.95M1230.05,1567h-45.8M1230.05,1509.75h-45.8M1184.25,1542.46l0,-32.71M1164.21,1542.46h20.04M1164.21,1550.64l0,-8.18M1160.94,1550.64h3.27M1160.94,1562.09l0,-11.45M1160.94,1562.09h23.31M1184.25,1567l0,-4.91M1230.05,1542.46l0,-32.71M1250.08,1550.64l0,-8.18h-20.04M1253.35,1550.64h-3.27M1253.35,1562.09l0,-11.45M1253.35,1562.09h-23.31M1230.05,1567l0,-4.91M1187.52,1043.58H853.84M932.35,1053.39h-78.51M942.16,1100.01h-98.14M932.35,1090.19h-78.51M844.02,1090.19l0,9.81M853.84,1080.38l0,9.81M942.16,1053.39l0,46.62M932.35,1053.39l0,36.8M1239.86,1038.67h-13.09M1230.05,1028.85h-3.27M1555.55,1038.67H1356.81M1555.55,1028.85H1366.63M1629.08,1058.3h-24.46M1622.54,1051.75h-17.91M1604.62,1009.23h17.91M1604.62,1015.77h17.91M2360.31,1058.3l0,49.07M2348.86,1107.37l0,-3.27M2360.31,1107.37h-11.45M2404.48,1021.9l0,31.49M2340.69,1104.1l0,-50.71M2348.86,1104.1h-8.18M2404.48,1053.39h-22.9M2381.58,1058.3h-21.26M2381.58,1053.39l0,4.91M2409.39,951.57l0,70.34M2389.76,994.1l0,-39.26M2366.86,994.1h22.9M2366.86,1014.13l0,-20.04M2409.39,1021.9h-4.91M2397.94,951.57h11.45M2397.94,954.84l0,-3.27M2389.76,954.84h8.18M1344.54,513.61H1226.77M1423.06,503.8H1226.77M839.11,562.68l0,96.51M829.3,562.68l0,96.51M1202.24,562.68l0,96.51M1212.05,562.68l0,96.51M1074.25,898H967.11M1074.25,907.81H967.11M1074.25,669H967.11M1074.25,659.19H967.11M898.41,907.81h-59.29M898.41,907.81l0,-9.81M967.11,907.81l0,-9.81M898.41,659.19h-59.29M898.41,659.19l0,9.81M967.11,659.19l0,9.81M1202.24,907.81h-59.29M1074.25,907.81l0,-9.81M1142.94,907.81l0,-9.81M1230.05,907.81h-17.99M1275.85,669H1142.94M1202.24,659.19h-59.29M1074.25,659.19l0,9.81M1142.94,659.19l0,9.81M1275.85,659.19h-63.79M1275.76,669.07l0,-9.88M1187.52,523.42H853.84M1187.52,513.61H942.16M844.02,503.8l0,-42.53M853.84,503.8l0,-32.71M932.35,513.61l0,-42.53M942.16,513.61l0,-52.34M932.35,471.08h-78.51M942.16,461.27h-98.14M1354.36,659.19L1354.36,513.61M1344.54,659.19L1344.54,513.61M1423.06,669l0,-39.02M1413.24,659.19l0,-29.21M1580.09,907.95h42.45M1580.09,901.41h48.99M1356.81,819.49l0,-35.99M1570.27,793.31H1366.63M1366.63,878.37h-9.81M1366.63,819.49h-9.81M1366.63,819.49l0,-26.17M1580.09,783.5H1363.36M1413.24,659.19h-58.89M1423.06,669h-59.7M1334.73,669.07l0,-9.88M1344.54,659.19h-9.81M1423.06,571.09l0,-67.3M1413.24,571.09l-0,-57.48M1423.06,629.98h-9.81M1423.06,571.09h-9.81M1413.24,513.61h-58.89M1184.25,0l0,4.91M1230.05,0l0,4.91M1230.05,57.25h-45.8M1184.25,24.54l0,32.71M1164.21,24.54h20.04M1164.21,16.36l0,8.18M1160.94,16.36h3.27M1160.94,4.91h23.31M1160.94,4.91l0,11.45M1230.05,24.54l0,32.71M1250.08,16.36l0,8.18h-20.04M1253.35,16.36h-3.27M1253.35,4.91h-23.31M1253.35,4.91l0,11.45M1230.05,0h-45.8M2340.69,462.9l0,50.71M2360.31,508.7l0,-49.07M2409.39,615.43l0,-70.34M2366.86,552.87l0,20.04M2389.76,572.9l0,39.26h8.18l0,3.27h11.45M2366.86,572.9h22.9M2381.58,513.61l0,-4.91M2404.48,513.61h-22.9M2409.39,545.1h-4.91l0,-31.49M2381.58,508.7h-21.26M2360.31,459.63h-11.45M2348.86,462.9h-8.18M2348.86,459.63l0,3.27M932.35,513.61h-78.51M1580.09,901.41L1580.09,783.5M1622.54,1015.77l0,35.99M142.71,1329.82h-52.34l0,-4.91h-31.49l0,-22.9h-4.91l0,-83.42h11.45l0,3.27h8.18l0,60.52h37.62l0,22.9h14.31l0,4.91h13.9l0,8.18h3.27l0,11.45M47.44,1014.13h62.16l0,9.81M109.59,1033.76l0,19.63M73.61,1053.39h35.99M496.84,1426.33h15.54l0,8.18h3.27l0,11.45h-53.98l0,-4.91h-29.85l0,-22.9h-4.91l0,-93.23h-9.41l0,4.91h-36.8l0,-11.45h3.27l0,-8.18h11.86l0,-4.91h50.71l0,93.23h35.99l0,22.9h14.31l0,4.91M245.76,1334.73l0,-4.91h-11.45l0,-11.45h3.27l0,-8.18h48.25l0,8.18h3.27l0,11.45h-11.45l0,4.91h-31.9M618.7,1450.87l0,-4.91h-11.45l0,-11.45h3.27l0,-8.18h48.25l0,8.18h3.27l0,11.45h-11.45l0,4.91h-31.9M480.9,1053.39l0,9.81h-39.26M441.64,1023.95l0,-19.63h14.72M466.17,1004.32h14.72l0,39.26M0,837.07h4.91l0,-11.45h11.45l0,3.27h8.18l0,21.67M24.54,860.38l0,16.77h-8.18l0,3.27h-11.45l0,-11.45h-4.91l0,-31.9M24.54,698.03l0,-8.18h-8.18l0,-3.27h-11.45l0,11.45h-4.91l0,31.9h4.91l0,11.45h11.45l0,-3.27h8.18l0,-26.2M109.59,533.24l0,-19.63M73.61,513.61h35.99M47.44,552.87h62.16l0,-9.81M480.9,513.61l0,-9.81h-39.26l0,29.44M441.64,543.05l0,19.63h14.72M466.17,562.68h14.72l0,-39.26M141.08,237.18h-50.71l0,4.91h-31.49l0,22.9h-4.91l0,83.42h11.45l0,-3.27h8.18l0,-60.52h35.99l0,-22.9h14.31l0,-4.91h13.9l0,-8.18h3.27l0,-11.45M496.84,140.67h15.54l0,-8.18h3.27l0,-11.45h-53.98l0,4.91h-29.85l0,22.9h-4.91l0,93.23h-9.41l0,-4.91h-36.8l0,11.45h3.27l0,8.18h11.86l0,4.91h50.71l0,-93.23h35.99l0,-22.9h14.31l0,-4.91M260.89,256.8h-23.31l0,-8.18h-3.27l0,-11.45h11.45l0,-4.91h31.9l0,4.91h11.45l0,11.45h-3.27l0,8.18h-11.86M618.7,116.13l0,4.91h-11.45l0,11.45h3.27l0,8.18h48.25l0,-8.18h3.27l0,-11.45h-11.45l0,-4.91h-31.9M1766.96,1434.51l0,-4.91h-11.45l0,-11.45h3.27l0,-8.18h48.25l0,8.18h3.27l0,11.45h-11.45l0,4.91h-31.9M1069.34,1562.09l0,-11.45h-3.27l0,-8.18h-22.08l0,-4.91h-55.61l0,8.18h-3.27l0,11.45h25.35l0,4.91h58.89M868.15,1537.56h22.08l0,8.18h3.27l0,11.45h-58.89l0,-4.91h-29.85l0,-22.9h-4.91l0,-88.33h-10.22l0,4.91h-35.99l0,-11.45h3.27l0,-8.18h11.04l0,-4.91h51.52l0,88.33h34.35l0,22.9h14.31l0,4.91M1187.52,1053.39H942.16M814.58,1063.2l0,-9.81M853.84,1053.39l0,9.81h-39.26M839.11,1004.32h14.72l0,39.26M814.58,1043.58l0,-39.26h14.72M1226.77,1038.67l0,24.54h-39.26l0,-58.89h14.72M1212.05,1004.32h14.72l0,24.54M1344.95,1562.09l0,-11.45h3.27l0,-8.18h22.08l0,-4.91h55.61l0,8.18h3.27l0,11.45h-25.35l0,4.91h-58.89M1546.14,1537.56h-22.08l0,8.18h-3.27l0,11.45h58.89l0,-4.91h29.85l0,-22.9h4.91L1614.44,1424.69h10.22l0,4.91h39.26l0,-11.45h-3.27l0,-8.18h-11.86l0,-4.91h-53.98L1594.81,1509.75h-34.35l0,22.9h-14.31l0,4.91M1604.62,1058.3h-49.07l0,-19.63M1580.09,1009.23h24.54M1555.55,1028.85l0,-19.63h14.72M1604.62,1015.77l0,35.99M2366.86,1014.13h-62.16l0,39.26M2340.69,1053.39h-35.99M2274.85,1297.11h49.07l0,-4.91h31.49l0,-22.9h4.91l0,-70.34h-11.45l0,3.27h-8.18l0,47.44h-34.35l0,22.9h-14.31l0,4.91h-13.9l0,8.18h-3.27l0,11.45M2139.9,1302.02l0,-4.91h-11.45l0,-11.45h3.27l0,-8.18h48.25l0,8.18h3.27l0,11.45h-11.45l0,4.91h-31.9M1919.9,1409.97h-14.72l0,8.18h-3.27l0,11.45h50.71l0,-4.91h29.85l0,-22.9h4.91L1987.37,1292.2h10.22l0,4.91h39.26l0,-11.45h-3.27l0,-8.18h-11.86l0,-4.91h-53.98L1967.75,1382.17h-33.53l0,22.9h-14.31l0,4.91M1928.49,1009.23h49.07l0,49.07h-49.07l0,-49.07M1766.96,132.49l0,4.91h-11.45l0,11.45h3.27l0,8.18h48.25l0,-8.18h3.27l0,-11.45h-11.45l0,-4.91h-31.9M814.58,523.42l0,39.26h39.26l0,-39.26M844.02,503.8h-29.44l0,9.81M853.84,513.61l0,-9.81M1212.05,562.68h14.72l0,-49.07M1187.52,523.42l0,39.26h14.72M1226.77,503.8h-39.26l0,9.81M1555.55,557.77h49.07l0,-49.07h-49.07l0,49.07M868.15,29.44h22.08l0,-8.18h3.27l0,-11.45h-58.89l0,4.91h-29.85l0,22.9h-4.91l0,88.33h-10.22l0,-4.91h-35.99l0,11.45h3.27l0,8.18h11.04l0,4.91h51.52l0,-88.33h34.35l0,-22.9h14.31l0,-4.91M1069.34,4.91l0,11.45h-3.27l0,8.18h-22.08l0,4.91h-55.61l0,-8.18h-3.27l0,-11.45h25.35l0,-4.91h58.89M1546.14,29.44h-22.08l0,-8.18h-3.27l0,-11.45h58.89l0,4.91h29.85l0,22.9h4.91L1614.44,142.31h10.22l0,-4.91h39.26l0,11.45h-3.27l0,8.18h-11.86l0,4.91h-53.98L1594.81,57.25h-34.35l0,-22.9h-14.31l0,-4.91M1344.95,4.91l0,11.45h3.27l0,8.18h22.08l0,4.91h55.61l0,-8.18h3.27l0,-11.45h-25.35l0,-4.91h-58.89M2274.85,269.89h49.07l0,4.91h31.49l0,22.9h4.91l0,70.34h-11.45l0,-3.27h-8.18l0,-47.44h-34.35l0,-22.9h-14.31l0,-4.91h-13.9l0,-8.18h-3.27l0,-11.45M2366.86,552.87h-62.16l0,-39.26M2340.69,513.61h-35.99M1928.49,557.77h49.07l0,-49.07h-49.07l0,49.07M2409.39,855.88l0,11.45h-11.45l0,-3.27h-8.18l0,-35.17h8.18l0,-3.27h11.45l0,11.45h4.91l0,18.81h-4.91M2409.39,711.12l0,-11.45h-11.45l0,3.27h-8.18l0,35.17h8.18l0,3.27h11.45l0,-11.45h4.91l0,-18.81h-4.91M1919.9,157.03h-14.72l0,-8.18h-3.27l0,-11.45h50.71l0,4.91h29.85l0,22.9h4.91L1987.37,274.8h10.22l0,-4.91h39.26l0,11.45h-3.27l0,8.18h-11.86l0,4.91h-53.98L1967.75,184.83h-33.53l0,-22.9h-14.31l0,-4.91M2139.9,264.98l0,4.91h-11.45l0,11.45h3.27l0,8.18h48.25l0,-8.18h3.27l0,-11.45h-11.45l0,-4.91h-31.9" />
</g>
<g style="font-family: arial, helvetica, sans-serif" stroke="none" fill="#7F0000">
<g font-size="141.030000" stroke="none" fill="#7F0000">
<text id="cv_41" transform="scale(1.111111 1) translate(434.57 1253.6) rotate(330) " >For Demonstration Purposes Only</text>
<text id="cv_42" transform="scale(1.111111 1) translate(869.15 1253.6) rotate(330) " >Tailor Made Software, Ltd</text>
</g>
</g>
</g>
<g id="layer_RM_" class="layer_RM_"  cvjs:layerName="RM_" cvjs:plottable="YES"
 cvjs:status="ON" visibility="visible">
<g id="cvclr_43" stroke="#007CA5" fill="none">
<path id="cv_44" class=" ZW" d="M322.23,1033.76H109.59v19.63h-35.99V1305.29h51.93v4.91H322.23V1033.76M444.91,1187.52V1305.29h1.64V1421.42h50.3v4.91H767.96v-4.91h53.16V1187.52H444.91M1001.05,1187.52H821.12V1347.82H1001.05V1187.52M821.12,1347.82V1508.11H1001.05V1347.82H821.12M1282.39,1187.52H1102.46V1347.82H1282.39V1187.52M1282.39,1347.82H1102.46V1508.11H1282.39V1347.82M1462.32,1347.82H1282.39V1508.11H1462.32V1347.82M1462.32,1187.52H1282.39V1347.82H1462.32V1187.52M1907.23,880.01V719.71H1727.3V880.01H1907.23M1907.23,559.41H1727.3V719.71H1907.23V559.41M1907.23,719.71H2087.15V559.41H1907.23V719.71M1907.23,880.01H2087.15V719.71H1907.23V880.01M1969.38,1010.86H1809.08V1153.14H1969.38V1010.86M1969.38,1272.57V1153.14H1596.44V1405.07h52.34v4.91H1919.9v-4.91h47.84V1272.57h1.64M2340.69,1015.77H2054.44v-4.91h-85.06V1272.57h52.34v4.91H2292.02v-4.91h48.66V1015.77M2178.02,785.14V1015.77H2340.69v-1.64h26.17v-20.04h22.9V785.14H2178.02M2178.02,785.14H2389.76V572.9h-22.9v-20.04h-26.17v-1.64H2178.02V785.14M2021.72,289.52v4.91h-52.34V559.41H2087.15v-8.18H2340.69V294.43h-48.66v-4.91H2021.72M1969.38,384.36v-89.94h-1.64V161.93h-47.84v-4.91H1648.78v4.91h-52.34V384.36H1969.38M1462.32,379.48V219.18H1282.39V379.48H1462.32M1282.39,379.48V219.18H1102.46V379.48H1282.39M1102.46,219.18H1282.39V58.89H1102.46V219.18M1001.05,379.48V219.18H821.12V379.48H1001.05M1001.05,219.18V58.89H821.12V219.18H1001.05M593.93,379.48H821.12V145.58h-53.16v-4.91H593.93V379.48M593.93,140.67h-97.08v4.91h-50.3V261.71h-9.65V379.48H593.93V140.67M1282.39,219.18H1462.32V58.89H1282.39V219.18M1344.54,669V503.8h78.51V669h-78.51M942.16,1053.39H608.48v36.8H844.02v9.81h98.14v-46.62M1344.54,503.8H1226.77v58.89h-14.72V669H1344.54V503.8M456.36,562.68h-14.72v-29.44h-39.26V669h53.98V562.68M323.87,812.94h-65.43V950.34h65.43V812.94M258.44,855.47H24.54V994.1h22.9v20.04h26.17v39.26h35.99v-19.63H323.87v-83.42h-65.43v-94.87M323.87,636.29H93.22l-68.69,68.69V855.47H258.44v-42.53h65.43V636.29M323.87,533.24h-49.89v9.81H109.59v9.81h-62.16v20.04h-22.9V704.97l68.69,-68.69H323.87V533.24M273.98,256.8H123.9v4.91h-50.3V552.87h35.99v-9.81H273.98v-9.81V256.8M1360.08,669H402.38V533.24h-78.51V1033.76h78.51V898H1239.86v3.27H1356.81V783.5h3.27V669M647.74,669V513.61H480.9v-9.81h-39.26v58.89h14.72V669H647.74M834.21,669V562.68h19.63v-58.89h-39.26v9.81H647.74V669H834.21M1020.68,669V513.61H853.84v49.07h-19.63V669H1020.68M1212.05,669V562.68h14.72v-58.89h-39.26v9.81H1020.68V669H1212.05M1020.68,1053.39V898H1239.86V1038.67h-13.09v24.54h-39.26v-9.81H1020.68M834.21,898H1020.68V1053.39H834.21V898M647.74,898H834.21V1053.39H647.74V898M456.36,898V1004.32h24.54v49.07H647.74V898H456.36M942.16,461.27h-98.14v42.53h9.81v9.81h88.33v-52.34M1580.09,901.41V783.5H1356.81V1038.67H1555.55v19.63h45.8v-49.07h-21.26V901.41M1629.08,901.41h-48.99V1009.23h21.26v6.54h27.73V901.41M480.9,1004.32h-24.54V898h-53.98V1033.76h39.26v29.44h39.26v-9.81v-49.07" />
</g>
<g style="font-family: arial, helvetica, sans-serif" stroke="none" fill="#7F0000">
<g font-size="141.030000" stroke="none" fill="#7F0000">
<text id="cv_45" transform="scale(1.111111 1) translate(434.57 1253.6) rotate(330) " >For Demonstration Purposes Only</text>
<text id="cv_46" transform="scale(1.111111 1) translate(869.15 1253.6) rotate(330) " >Tailor Made Software, Ltd</text>
</g>
</g>
</g>
<g id="layer_GROS_24_" class="layer_GROS_24_"  cvjs:layerName="GROS$" cvjs:plottable="YES"
 cvjs:status="ON" visibility="visible">
<g id="cvclr_47" stroke="#FF3F00" fill="none">
<path id="cv_48" class=" ZW" d="M90.37,237.18v4.91h-31.49v22.9h-4.91V508.7h-21.26v4.91h-22.9v31.49h-4.91V698.03h-4.91v31.9h4.91V837.07h-4.91v31.9h4.91V1021.9h4.91v31.49h22.9v4.91h21.26V1302.02h4.91v22.9h31.49v4.91H245.76v4.91h31.9v-4.91H417.51v-4.91h9.41v93.23h4.91v22.9h29.85v4.91H618.7v4.91h31.9v-4.91H789.63v-4.91h10.22v88.33h4.91v22.9h29.85v4.91H1010.45v4.91H1184.25v4.91h45.8v-4.91H1403.84v-4.91H1579.68v-4.91h29.85v-22.9h4.91V1424.69h10.22v4.91H1766.96v4.91h31.9v-4.91H1952.62v-4.91h29.85v-22.9h4.91V1292.2h10.22v4.91H2139.9v4.91h31.9v-4.91H2323.92v-4.91h31.49v-22.9h4.91V1058.3h21.26v-4.91h22.9v-31.49h4.91V855.88h4.91v-18.81h-4.91V729.93h4.91v-18.81h-4.91V545.1h-4.91v-31.49h-22.9v-4.91h-21.26V297.7h-4.91v-22.9h-31.49v-4.91H2171.8v-4.91h-31.9v4.91H1997.6v4.91h-10.22V165.21h-4.91v-22.9h-29.85v-4.91H1798.86v-4.91h-31.9v4.91H1624.66v4.91h-10.22V37.62h-4.91v-22.9h-29.85v-4.91H1403.84v-4.91H1230.05v-4.91h-45.8v4.91H1010.45v4.91H834.62v4.91h-29.85v22.9h-4.91v88.33h-10.22v-4.91H650.6v-4.91h-31.9v4.91H461.68v4.91h-29.85v22.9h-4.91v93.23h-9.41v-4.91H277.66v-4.91h-31.9v4.91H90.37M819.49,145.58h-51.52v-4.91H496.84v4.91h-50.3V261.71h-50.71v-4.91H123.9v4.91h-50.3V552.87h-26.17v20.04h-22.9V994.1h22.9v20.04h26.17V1305.29h51.93v4.91H395.84v-4.91h50.71V1421.42h50.3v4.91H767.96v-4.91h51.52V1532.65h48.66v4.91H1043.99v4.91H1370.31v-4.91H1546.14v-4.91h48.66V1405.07h53.98v4.91H1919.9v-4.91h47.84V1272.57h53.98v4.91H2292.02v-4.91h48.66V1014.13h26.17v-20.04h22.9V572.9h-22.9v-20.04h-26.17V294.43h-48.66v-4.91H2021.72v4.91h-53.98V161.93h-47.84v-4.91H1648.78v4.91h-53.98V34.35h-48.66v-4.91H1370.31v-4.91H1043.99v4.91H868.15v4.91h-48.66V145.58" />
</g>
<g style="font-family: arial, helvetica, sans-serif" stroke="none" fill="#7F0000">
<g font-size="141.030000" stroke="none" fill="#7F0000">
<text id="cv_49" transform="scale(1.111111 1) translate(434.57 1253.6) rotate(330) " >For Demonstration Purposes Only</text>
<text id="cv_50" transform="scale(1.111111 1) translate(869.15 1253.6) rotate(330) " >Tailor Made Software, Ltd</text>
</g>
</g>
</g>
<g id="layer_PL_2D_MISC" class="layer_PL_2D_MISC"  cvjs:layerName="PL-MISC" cvjs:plottable="YES"
 cvjs:status="ON" visibility="visible">
<g id="cvclr_51" stroke="#29A500" fill="none">
<path id="cv_52" class="ZW" d="M618.29,1060.75L814.58,1080.38M618.29,1080.38L814.58,1060.75M456.36,907.81l-44.16,96.51M412.2,907.81l44.16,96.51M644.47,907.81L644.47,1043.58M651.01,907.81L651.01,1043.58M644.47,659.19L644.47,523.42M651.01,659.19L651.01,523.42M314.05,822.76L268.25,940.53M268.25,822.76L314.05,940.53M1017.41,907.81L1017.41,1043.58M1023.95,907.81L1023.95,1043.58M1580.09,907.95L1622.54,1009.23M1580.09,1009.23L1622.54,907.95M853.84,1060.75l78.51,29.44M853.84,1090.19l78.51,-29.44M1017.41,659.19L1017.41,523.42M1023.95,659.19L1023.95,523.42M853.84,471.08l78.51,29.44M853.84,500.52l78.51,-29.44M853.84,500.52h78.51M441.64,1004.32h-29.44M853.84,1063.2l0,17.17M814.58,1063.2l0,17.17" />
</g>
<g style="font-family: arial, helvetica, sans-serif" stroke="none" fill="#7F0000">
<g font-size="141.030000" stroke="none" fill="#7F0000">
<text id="cv_53" transform="scale(1.111111 1) translate(434.57 1253.6) rotate(330) " >For Demonstration Purposes Only</text>
<text id="cv_54" transform="scale(1.111111 1) translate(869.15 1253.6) rotate(330) " >Tailor Made Software, Ltd</text>
</g>
</g>
</g>
<g id="layer_PL_2D_TOIL" class="layer_PL_2D_TOIL"  cvjs:layerName="PL-TOIL" cvjs:plottable="YES"
 cvjs:status="ON" visibility="visible">
<g id="cvclr_55" stroke="#29A500" fill="none">
<path id="cv_56" class="ZW" d="M153.76,947.07l0,3.27M161.93,947.07l0,3.27M201.19,947.07l0,3.27M214.28,947.07l0,3.27M253.53,947.07l0,3.27M223.74,997.28l34.7,-34.7M161.93,950.34h-8.18M214.28,950.34h-13.09M258.44,1011.65l0,12.29M261.71,1011.65l0,12.29M258.44,1011.65h3.27M258.44,950.34h-4.91M261.71,950.34l0,12.24M258.44,950.34l0,12.24h3.27M104.68,850.56l0,-85.87M101.41,850.56l0,-85.87M157.03,850.56l0,-85.87M153.76,850.56l0,-85.87M206.1,850.56l0,-85.87M209.37,850.56l0,-85.87M157.03,946.25l0,-85.87M153.76,946.25l0,-85.87M206.1,946.25l0,-85.87M209.37,946.25l0,-85.87M161.93,947.07h-8.18M153.76,946.25h3.27M214.28,947.07h-13.09M209.37,946.25h-3.27M109.59,763.87h-8.18M109.59,760.6h-8.18M109.59,763.87l0,-3.27M101.41,760.6l0,3.27M104.68,764.69h-3.27M161.93,763.87h-13.09M161.93,760.6h-13.09M148.85,763.87l0,-3.27M157.03,764.69h-3.27M161.93,763.87l0,-3.27M214.28,760.6h-13.09M214.28,763.87h-13.09M214.28,763.87l0,-3.27M201.19,763.87l0,-3.27M209.37,764.69h-3.27M258.44,812.94l0,-49.07M261.71,812.94l0,-49.07M258.44,947.07h-4.91M258.44,714.8l0,-73.61M261.71,714.8l0,-73.61M261.71,754.06h-3.27M258.44,760.6h-4.91M258.44,763.87h-4.91M261.71,760.6l0,-6.54M258.44,760.6l0,-6.54M268.25,760.6h-6.54M268.25,763.87h-6.54M261.71,754.06h-3.27M268.25,760.6l0,3.27M253.53,763.87l0,-3.27M261.71,714.8h-3.27M314.05,763.87h-6.54M314.05,760.6h-6.54M307.51,763.87l0,-3.27M95.26,641.19l-70.72,70.72M258.44,947.07L258.44,763.87M1555.92,1028.97H1366.92M1366.7,1028.42L1366.7,878.37M1570.09,793.4L1570.09,1009.3M1366.7,793.4H1570.09M1366.7,819.49l0,-26.08M95.26,641.19H258.44" />
<path id="cv_57" class="ZW" d="M223.74,997.28A 49.070981 49.070981 0 0 0 258.44 1011.65" />
</g>
<g style="font-family: arial, helvetica, sans-serif" stroke="none" fill="#7F0000">
<g font-size="141.030000" stroke="none" fill="#7F0000">
<text id="cv_58" transform="scale(1.111111 1) translate(434.57 1253.6) rotate(330) " >For Demonstration Purposes Only</text>
<text id="cv_59" transform="scale(1.111111 1) translate(869.15 1253.6) rotate(330) " >Tailor Made Software, Ltd</text>
</g>
</g>
<g class="SINK" id="cv_Block_SINK_1">
<g id="cvclr_60" stroke="#29A500" fill="none">
<path id="cv_61" class="ZW" d="M100.02,860.38l0,31.22M101.82,893.39h43.27M146.89,891.59l0,-31.22h-46.87M107.91,889.23h31.09M142.72,885.51l0,-13.58M104.18,871.93l0,13.58M139,868.2h-14.29M122.09,865.42l0,10.33h2.62l0,-10.33h-2.62M122.09,868.2h-14.18" />
<path id="cv_62" class="ZW" d="M107.91,868.2A 3.722822 3.722822 0 0 0 104.18 871.93M104.18,885.51A 3.722822 3.722822 0 0 0 107.91 889.23M139,889.23A 3.722822 3.722822 0 0 0 142.72 885.51M142.72,871.93A 3.722822 3.722822 0 0 0 139 868.2M100.02,891.59A 1.799269 1.799269 0 0 0 101.82 893.39M145.09,893.39A 1.799269 1.799269 0 0 0 146.89 891.59" />
<circle id="cv_63" class="ZW" cx="116.73" cy="864.66" r="2.416536" />
<circle id="cv_64" class="ZW" cx="130.06" cy="864.66" r="2.416536" />
</g>
</g>
<g class="SINK" id="cv_Block_SINK_2">
<g id="cvclr_65" stroke="#29A500" fill="none">
<path id="cv_66" class="ZW" d="M44.12,860.38l0,31.22M45.92,893.39h43.27M90.99,891.59l0,-31.22h-46.87M52.01,889.23h31.09M86.82,885.51l0,-13.58M48.28,871.93l0,13.58M83.1,868.2h-14.29M66.19,865.42l0,10.33h2.62l0,-10.33h-2.62M66.19,868.2h-14.18" />
<path id="cv_67" class="ZW" d="M52.01,868.2A 3.722822 3.722822 0 0 0 48.28 871.93M48.28,885.51A 3.722822 3.722822 0 0 0 52.01 889.23M83.1,889.23A 3.722822 3.722822 0 0 0 86.82 885.51M86.82,871.93A 3.722822 3.722822 0 0 0 83.1 868.2M44.12,891.59A 1.799269 1.799269 0 0 0 45.92 893.39M89.19,893.39A 1.799269 1.799269 0 0 0 90.99 891.59" />
<circle id="cv_68" class="ZW" cx="60.83" cy="864.66" r="2.416536" />
<circle id="cv_69" class="ZW" cx="74.16" cy="864.66" r="2.416536" />
</g>
</g>
<g class="SINK" id="cv_Block_SINK_3">
<g id="cvclr_70" stroke="#29A500" fill="none">
<path id="cv_71" class="ZW" d="M44.12,850.56l0,-31.22M45.92,817.55h43.27M90.99,819.35l0,31.22h-46.87M52.01,821.71h31.09M86.82,825.44l0,13.58M48.28,839.02l0,-13.58M83.1,842.74h-14.29M66.19,845.52l0,-10.33h2.62l0,10.33h-2.62M66.19,842.74h-14.18" />
<path id="cv_72" class="ZW" d="M48.28,839.02A 3.722822 3.722822 0 0 0 52.01 842.74M52.01,821.71A 3.722822 3.722822 0 0 0 48.28 825.44M86.82,825.44A 3.722822 3.722822 0 0 0 83.1 821.71M83.1,842.74A 3.722822 3.722822 0 0 0 86.82 839.02M45.92,817.55A 1.799269 1.799269 0 0 0 44.12 819.35M90.99,819.35A 1.799269 1.799269 0 0 0 89.19 817.55" />
<circle id="cv_73" class="ZW" cx="60.83" cy="846.28" r="2.416536" />
<circle id="cv_74" class="ZW" cx="74.16" cy="846.28" r="2.416536" />
</g>
</g>
<g class="SINK" id="cv_Block_SINK_4">
<g id="cvclr_75" stroke="#29A500" fill="none">
<path id="cv_76" class="ZW" d="M162.02,644.47l0,31.22M160.22,677.48h-43.27M115.15,675.68l0,-31.22h46.87M154.13,673.32h-31.09M119.32,669.59l0,-13.58M157.86,656.01l0,13.58M123.04,652.29h14.29M139.95,649.51l0,10.33h-2.62l0,-10.33h2.62M139.95,652.29h14.18" />
<path id="cv_77" class="ZW" d="M157.86,656.01A 3.722822 3.722822 0 0 0 154.13 652.29M154.13,673.32A 3.722822 3.722822 0 0 0 157.86 669.59M119.32,669.59A 3.722822 3.722822 0 0 0 123.04 673.32M123.04,652.29A 3.722822 3.722822 0 0 0 119.32 656.01M160.22,677.48A 1.799269 1.799269 0 0 0 162.02 675.68M115.15,675.68A 1.799269 1.799269 0 0 0 116.95 677.48" />
<circle id="cv_78" class="ZW" cx="145.31" cy="648.75" r="2.416536" />
<circle id="cv_79" class="ZW" cx="131.98" cy="648.75" r="2.416536" />
</g>
</g>
<g class="WC_2D_DOOR" id="cv_Block_WC_2D_DOOR_5">
<g id="cvclr_80" stroke="#29A500" fill="none">
<path id="cv_81" class="ZW" d="M253.53,763.87l-27.76,27.76" />
<path id="cv_82" class="ZW" d="M214.28,763.87A 39.256785 39.256785 0 0 0 225.77 791.63" />
</g>
</g>
<g class="TOILET" id="cv_Block_TOILET_6">
<g id="cvclr_83" stroke="#29A500" fill="none">
<path id="cv_84" class="ZW" d="M245.35,860.38h-22.9M245.35,860.38l-4.09,7.36M222.46,860.38l4.09,7.36" />
<path id="cv_85" class="ZW" d="M241.27,867.74A 8.420278 8.420278 0 0 0 241.27 875.92M241.27,898.82A 18.074478 18.074478 0 0 0 241.27 875.92M226.54,898.82A 8.669207 8.669207 0 0 0 241.27 898.82M226.54,875.92A 18.074478 18.074478 0 0 0 226.54 898.82M226.54,875.92A 8.420278 8.420278 0 0 0 226.54 867.74" />
<circle id="cv_86" class="ZW" cx="233.91" cy="863.65" r="1.635699" />
</g>
</g>
<g class="TOILET" id="cv_Block_TOILET_7">
<g id="cvclr_87" stroke="#29A500" fill="none">
<path id="cv_88" class="ZW" d="M245.35,850.56h-22.9M245.35,850.56l-4.09,-7.36M222.46,850.56l4.09,-7.36" />
<path id="cv_89" class="ZW" d="M241.27,835.02A 8.420278 8.420278 0 0 0 241.27 843.2M241.26,835.03A 18.074478 18.074478 0 0 0 241.27 812.13M241.27,812.12A 8.669207 8.669207 0 0 0 226.54 812.12M226.54,812.12A 18.074478 18.074478 0 0 0 226.54 835.02M226.54,843.2A 8.420278 8.420278 0 0 0 226.54 835.03" />
<circle id="cv_90" class="ZW" cx="233.91" cy="847.29" r="1.635699" />
</g>
</g>
<g class="WC_2D_DOOR" id="cv_Block_WC_2D_DOOR_8">
<g id="cvclr_91" stroke="#29A500" fill="none">
<path id="cv_92" class="ZW" d="M253.53,947.07l-27.76,-27.76" />
<path id="cv_93" class="ZW" d="M225.78,919.31A 39.256785 39.256785 0 0 0 214.28 947.07" />
</g>
</g>
<g class="URINAL" id="cv_Block_URINAL_9">
<g id="cvclr_94" stroke="#29A500" fill="none">
<path id="cv_95" class="ZW" d="M219.54,644.47h29.44M219.54,655.92l0,-11.45M222.81,654.28l0,1.64M231.81,663.28l-6.54,-9M243.26,654.28l-6.54,9M245.71,655.92l0,-1.64M248.98,644.47l0,11.45M244.08,653.46h-19.63" />
<path id="cv_96" class="ZW" d="M219.54,655.92A 1.635699 1.635699 0 1 0 222.81 655.92M225.27,654.28A 1.293133 1.293133 0 0 0 222.81 654.28M231.81,663.28A 4.089248 4.089248 0 0 0 236.72 663.28M245.71,654.28A 1.293133 1.293133 0 0 0 243.26 654.28M245.71,655.92A 1.635699 1.635699 0 1 0 248.98 655.92" />
<circle id="cv_97" class="ZW" cx="234.26" cy="647.74" r="1.635699" />
</g>
</g>
<g class="WC_2D_DOOR" id="cv_Block_WC_2D_DOOR_10">
<g id="cvclr_98" stroke="#29A500" fill="none">
<path id="cv_99" class="ZW" d="M258.44,754.06l-27.76,-27.76" />
<path id="cv_100" class="ZW" d="M258.44,714.8A 39.256785 39.256785 0 0 0 230.68 726.3" />
</g>
</g>
<g class="WC_2D_DOOR" id="cv_Block_WC_2D_DOOR_11">
<g id="cvclr_101" stroke="#29A500" fill="none">
<path id="cv_102" class="ZW" d="M201.19,763.87l-27.76,27.76" />
<path id="cv_103" class="ZW" d="M161.93,763.87A 39.256785 39.256785 0 0 0 173.43 791.63" />
</g>
</g>
<g class="WC_2D_DOOR" id="cv_Block_WC_2D_DOOR_12">
<g id="cvclr_104" stroke="#29A500" fill="none">
<path id="cv_105" class="ZW" d="M148.85,763.87l-27.76,27.76" />
<path id="cv_106" class="ZW" d="M109.59,763.87A 39.256785 39.256785 0 0 0 121.09 791.63" />
</g>
</g>
<g class="TOILET" id="cv_Block_TOILET_13">
<g id="cvclr_107" stroke="#29A500" fill="none">
<path id="cv_108" class="ZW" d="M193.01,860.38h-22.9M193.01,860.38l-4.09,7.36M170.11,860.38l4.09,7.36" />
<path id="cv_109" class="ZW" d="M188.92,867.74A 8.420278 8.420278 0 0 0 188.92 875.92M188.92,898.82A 18.074478 18.074478 0 0 0 188.92 875.92M174.2,898.82A 8.669207 8.669207 0 0 0 188.92 898.82M174.2,875.92A 18.074478 18.074478 0 0 0 174.2 898.82M174.2,875.92A 8.420278 8.420278 0 0 0 174.2 867.74" />
<circle id="cv_110" class="ZW" cx="181.56" cy="863.65" r="1.635699" />
</g>
</g>
<g class="WC_2D_DOOR" id="cv_Block_WC_2D_DOOR_14">
<g id="cvclr_111" stroke="#29A500" fill="none">
<path id="cv_112" class="ZW" d="M201.19,947.07l-27.76,-27.76" />
<path id="cv_113" class="ZW" d="M173.43,919.31A 39.256785 39.256785 0 0 0 161.93 947.07" />
</g>
</g>
<g class="TOILET" id="cv_Block_TOILET_15">
<g id="cvclr_114" stroke="#29A500" fill="none">
<path id="cv_115" class="ZW" d="M140.67,850.56h-22.9M140.67,850.56l-4.09,-7.36M117.77,850.56l4.09,-7.36" />
<path id="cv_116" class="ZW" d="M136.58,835.02A 8.420278 8.420278 0 0 0 136.58 843.2M136.58,835.03A 18.074478 18.074478 0 0 0 136.58 812.13M136.58,812.12A 8.669207 8.669207 0 0 0 121.86 812.12M121.86,812.12A 18.074478 18.074478 0 0 0 121.86 835.02M121.86,843.2A 8.420278 8.420278 0 0 0 121.86 835.03" />
<circle id="cv_117" class="ZW" cx="129.22" cy="847.29" r="1.635699" />
</g>
</g>
<g class="TOILET" id="cv_Block_TOILET_16">
<g id="cvclr_118" stroke="#29A500" fill="none">
<path id="cv_119" class="ZW" d="M193.01,850.56h-22.9M193.01,850.56l-4.09,-7.36M170.11,850.56l4.09,-7.36" />
<path id="cv_120" class="ZW" d="M188.92,835.02A 8.420278 8.420278 0 0 0 188.92 843.2M188.92,835.03A 18.074478 18.074478 0 0 0 188.92 812.13M188.92,812.12A 8.669207 8.669207 0 0 0 174.2 812.12M174.2,812.12A 18.074478 18.074478 0 0 0 174.2 835.02M174.2,843.2A 8.420278 8.420278 0 0 0 174.2 835.03" />
<circle id="cv_121" class="ZW" cx="181.56" cy="847.29" r="1.635699" />
</g>
</g>
<g class="URINAL" id="cv_Block_URINAL_17">
<g id="cvclr_122" stroke="#29A500" fill="none">
<path id="cv_123" class="ZW" d="M181.68,644.47h29.44M181.68,655.92l0,-11.45M184.96,654.28l0,1.64M193.95,663.28l-6.54,-9M205.4,654.28l-6.54,9M207.86,655.92l0,-1.64M211.13,644.47l0,11.45M206.22,653.46h-19.63" />
<path id="cv_124" class="ZW" d="M181.68,655.92A 1.635699 1.635699 0 1 0 184.96 655.92M187.41,654.28A 1.293133 1.293133 0 0 0 184.96 654.28M193.95,663.28A 4.089248 4.089248 0 0 0 198.86 663.28M207.86,654.28A 1.293133 1.293133 0 0 0 205.4 654.28M207.86,655.92A 1.635699 1.635699 0 1 0 211.13 655.92" />
<circle id="cv_125" class="ZW" cx="196.41" cy="647.74" r="1.635699" />
</g>
</g>
<g class="WC_2D_DOOR" id="cv_Block_WC_2D_DOOR_18">
<g id="cvclr_126" stroke="#29A500" fill="none">
<path id="cv_127" class="ZW" d="M268.25,760.6l27.76,-27.76" />
<path id="cv_128" class="ZW" d="M307.51,760.6A 39.256785 39.256785 0 0 0 296.02 732.84" />
</g>
</g>
</g>
<g id="layer_DR" class="layer_DR"  cvjs:layerName="DR" cvjs:plottable="YES"
 cvjs:status="ON" visibility="visible">
<g id="cvclr_129" stroke="#FF7F00" fill="none">
<path id="cv_130" class="ZW" d="M279.36,997.28l34.7,-34.7M209.44,491.6l41.64,41.64M279.36,688.98l34.7,-34.7M360.74,594.5l41.64,-41.64M272.42,575.02l41.64,41.64M1315.17,836.73l41.64,41.64M1293.09,710.64l41.64,-41.64M1464.72,612.59l-41.64,-41.64" />
<path id="cv_131" class="ZW" d="M279.35,997.28A 49.070981 49.070981 0 0 0 314.05 1011.65M209.44,491.6A 58.885177 58.885177 0 0 0 192.19 533.23M279.35,688.98A 49.070981 49.070981 0 0 0 314.05 703.35M360.74,594.5A 58.885177 58.885177 0 0 0 402.38 611.75M314.06,557.77A 58.885177 58.885177 0 0 0 272.42 575.02M1356.81,819.49A 58.885177 58.885177 0 0 0 1315.18 836.73M1275.85,669A 58.885177 58.885177 0 0 0 1293.09 710.64M1423.08,629.83A 58.885177 58.885177 0 0 0 1464.72 612.59" />
</g>
<g style="font-family: arial, helvetica, sans-serif" stroke="none" fill="#7F0000">
<g font-size="141.030000" stroke="none" fill="#7F0000">
<text id="cv_132" transform="scale(1.111111 1) translate(434.57 1253.6) rotate(330) " >For Demonstration Purposes Only</text>
<text id="cv_133" transform="scale(1.111111 1) translate(869.15 1253.6) rotate(330) " >Tailor Made Software, Ltd</text>
</g>
</g>
<g class="90S2" id="cv_Block_90S2_19">
<g id="cvclr_134" stroke="#FF7F00" fill="none">
<path id="cv_135" class=" ZW" d="M333.68,1033.76l0.03,1.85l0.09,1.85l0.14,1.84l0.2,1.84l0.26,1.83l0.32,1.82l0.37,1.81l0.43,1.8l0.49,1.78l0.54,1.77l0.6,1.75l0.65,1.73l0.71,1.71l0.76,1.68l0.81,1.66l0.86,1.63l0.91,1.61l1.16,1.89l1.23,1.84l1.3,1.79l1.37,1.74l1.43,1.69l1.5,1.64l1.82,1.84l1.62,1.51l1.68,1.45l1.73,1.38l1.78,1.32l1.83,1.25l1.88,1.18l1.6,0.93l1.63,0.88l1.65,0.83l1.68,0.77l1.7,0.72l1.72,0.67l1.74,0.61l1.76,0.56l1.78,0.5l1.79,0.45l1.81,0.39l1.82,0.33l1.83,0.27l1.84,0.22l1.84,0.16l1.85,0.1l1.85,0.04l1.85,-0.01h0.37" />
<path id="cv_136" class="ZW" d="M392.57,1033.76l0,58.89M390.73,1033.76l0,58.77M392.57,1033.76h-1.84" />
</g>
</g>
<g class="DR_2D_S90" id="cv_Block_DR_2D_S90_20">
<g id="cvclr_137" stroke="#FF7F00" fill="none">
<path id="cv_138" class=" ZW" d="M382.02,533.24l-0.03,-1.79l-0.1,-1.79l-0.17,-1.78l-0.23,-1.77l-0.3,-1.76l-0.37,-1.75l-0.43,-1.74l-0.5,-1.72l-0.56,-1.7l-0.63,-1.68l-0.69,-1.65l-0.75,-1.62l-0.95,-1.86l-1.03,-1.81l-1.11,-1.77l-1.19,-1.72l-1.26,-1.66l-1.33,-1.61l-1.61,-1.76l-1.69,-1.68l-1.78,-1.59l-1.62,-1.32l-1.67,-1.25l-1.73,-1.17l-1.78,-1.1l-1.82,-1.02l-1.6,-0.81l-1.63,-0.75l-1.65,-0.69l-1.68,-0.62l-1.7,-0.56l-1.72,-0.49l-1.74,-0.43l-1.75,-0.36l-1.76,-0.3l-1.77,-0.23l-1.78,-0.17l-0.89,-0.06l-0.3,-0.02" />
<path id="cv_139" class="ZW" d="M336.73,485.64l0,47.36h-2.31l0,-47.36h2.31" />
</g>
</g>
<g class="90S2" id="cv_Block_90S2_21">
<g id="cvclr_140" stroke="#FF7F00" fill="none">
<path id="cv_141" class=" ZW" d="M1275.03,904.54l0.03,1.85l0.09,1.85l0.14,1.84l0.2,1.84l0.26,1.83l0.32,1.82l0.37,1.81l0.43,1.8l0.49,1.78l0.54,1.77l0.6,1.75l0.65,1.73l0.71,1.71l0.76,1.68l0.81,1.66l0.86,1.63l0.91,1.61l1.16,1.89l1.23,1.84l1.3,1.79l1.37,1.74l1.43,1.69l1.5,1.64l1.82,1.84l1.62,1.51l1.68,1.45l1.73,1.38l1.78,1.32l1.83,1.25l1.88,1.18l1.6,0.93l1.63,0.88l1.65,0.83l1.68,0.77l1.7,0.72l1.72,0.67l1.74,0.61l1.76,0.56l1.78,0.5l1.79,0.45l1.81,0.39l1.82,0.33l1.83,0.27l1.84,0.22l1.84,0.16l1.85,0.1l1.85,0.04l1.85,-0.01h0.37" />
<path id="cv_142" class="ZW" d="M1333.92,904.54l0,58.89M1332.08,904.54l0,58.77M1333.92,904.54h-1.84" />
</g>
</g>
<g class="DR_2D_DOUB" id="cv_Block_DR_2D_DOUB_22">
<g id="cvclr_143" stroke="#FF7F00" fill="none">
<path id="cv_144" class=" ZW" d="M1412.43,677.87l-0.03,1.85l-0.1,1.85l-0.17,1.84l-0.24,1.83l-0.31,1.82l-0.38,1.81l-0.45,1.79l-0.52,1.78l-0.58,1.76l-0.65,1.73l-0.71,1.71l-0.78,1.68l-0.84,1.65l-0.9,1.62l-1.13,1.84l-1.21,1.79l-1.28,1.73l-1.36,1.68l-1.43,1.61l-1.72,1.77l-1.81,1.68l-1.65,1.39l-1.71,1.32l-1.77,1.24l-1.82,1.16l-1.6,0.93l-1.63,0.87l-1.66,0.81l-1.69,0.75l-1.72,0.68l-1.74,0.62l-1.77,0.55l-1.79,0.48l-1.8,0.41l-1.82,0.35l-1.83,0.28l-1.84,0.21l-1.84,0.14l-1.85,0.07h-0.62h-0.31M1363.36,726.94l1.85,0.03l1.85,0.1l1.84,0.17l1.83,0.24l1.82,0.31l1.81,0.38l1.79,0.45l1.78,0.52l1.76,0.58l1.73,0.65l1.71,0.71l1.68,0.78l1.65,0.84l1.62,0.9l1.84,1.13l1.79,1.21l1.73,1.28l1.68,1.36l1.61,1.43l1.77,1.72l1.68,1.81l1.39,1.65l1.32,1.71l1.24,1.77l1.16,1.82l0.93,1.6l0.87,1.63l0.81,1.66l0.75,1.69l0.68,1.72l0.62,1.74l0.55,1.77l0.48,1.79l0.41,1.8l0.35,1.82l0.28,1.83l0.21,1.84l0.14,1.84l0.07,1.85v0.62v0.31" />
<path id="cv_145" class="ZW" d="M1363.36,677.87h49.07l0,1.53h-49.07l0,-1.53M1363.36,774.47l0,1.53M1412.43,774.47h-49.07M1412.43,776.01l0,-1.53M1363.36,776.01h49.07" />
</g>
</g>
</g>
<g id="layer_PL" class="layer_PL"  cvjs:layerName="PL" cvjs:plottable="YES"
 cvjs:status="ON" visibility="visible">
<g id="cvclr_146" stroke="#29A500" fill="none">
<path id="cv_147" class="ZW" d="M88.33,513.61L88.33,284.61M4.91,686.58l0,-84.24M53.98,440l0,-91.6M141.08,237.18h93.23" />
</g>
<g style="font-family: arial, helvetica, sans-serif" stroke="none" fill="#7F0000">
<g font-size="141.030000" stroke="none" fill="#7F0000">
<text id="cv_148" transform="scale(1.111111 1) translate(434.57 1253.6) rotate(330) " >For Demonstration Purposes Only</text>
<text id="cv_149" transform="scale(1.111111 1) translate(869.15 1253.6) rotate(330) " >Tailor Made Software, Ltd</text>
</g>
</g>
</g>
<g id="layer_PL_2D_STAIR" class="layer_PL_2D_STAIR"  cvjs:layerName="PL-STAIR" cvjs:plottable="YES"
 cvjs:status="ON" visibility="visible">
<g id="cvclr_150" stroke="none" fill="#29A500" opacity="1.">
<path id="cv_151" d="M126.9,372.94l2.73,-16.36l2.73,16.36h-5.45 Z "/>
<path id="cv_152" d="M216.87,372.94l2.73,-16.36l2.73,16.36h-5.45 Z "/>
<path id="cv_153" d="M1411.88,933.98l-2.73,16.36l-2.73,-16.36h5.45 Z "/>
<path id="cv_154" d="M1475.4,841.29l16.36,2.73l-16.36,2.73v-5.45 Z "/>
</g>
<g id="cvclr_155" stroke="#29A500" fill="none">
<path id="cv_156" class=" ZW" d="M163.57,453.09v-6.54h6.54v6.54h-6.54M179.11,453.09v-6.54h6.54v6.54h-6.54" />
<path id="cv_157" class=" nZW sLW_0_5" d="M163.57,359.85v-6.54h6.54v6.54h-6.54" />
<path id="cv_158" class=" ZW" d="M179.11,359.85v-6.54h6.54v6.54h-6.54M1441.87,953.61v-6.54h6.54v6.54h-6.54M1488.49,953.61v-6.54h6.54v6.54h-6.54" />
<path id="cv_159" class=" nZW sLW_0_5" d="M1441.87,891.46v-6.54h6.54v6.54h-6.54" />
<path id="cv_160" class=" ZW" d="M1488.49,891.46v-6.54h6.54v6.54h-6.54" />
<path id="cv_161" class="ZW" d="M166.84,353.31l0,-96.51M182.38,353.31l0,-96.51M260.89,418.74h-78.51M253.53,418.74h-71.15M253.53,434.28h-71.15M253.53,449.82h-67.88M253.53,356.58h-67.88M253.53,372.12h-71.15M253.53,387.66h-71.15M253.53,403.2h-71.15M129.63,372.94L129.63,493.16M166.84,533.24l0,-80.15M182.38,533.24l0,-80.15M129.63,493.16h52.75" />
<path id="cv_162" class="nZW sLW_0_5" d="M166.84,418.74h-78.51" />
<path id="cv_163" class="ZW" d="M166.84,418.74h-71.15M166.84,434.28h-71.15M163.57,449.82h-67.88M166.84,372.12h-71.15M166.84,387.66h-71.15M166.84,403.2h-71.15M163.57,356.58h-67.88M93.23,453.09l0,-99.78M95.69,453.09l0,-99.78M95.69,453.09h-2.45M93.23,449.82h-4.91M93.23,418.74h-4.91M93.23,434.28h-4.91M93.23,403.2h-4.91M93.23,356.58h-4.91M93.23,372.12h-4.91M93.23,387.66h-4.91M95.69,353.31h-2.45M182.38,446.55l0,-86.69M166.84,446.55l0,-86.69M169.29,446.55l0,-86.69M179.93,446.55l0,-86.69M219.59,372.94l0,76.88M179.11,449.82h-9M179.11,447.36h-9M179.11,356.58h-9M179.11,359.04h-9M255.99,453.09l0,-99.78M253.53,453.09l0,-99.78M260.89,449.82h-4.91M255.99,453.09h-2.45M260.89,418.74h-4.91M260.89,434.28h-4.91M260.89,403.2h-4.91M260.89,356.58h-4.91M260.89,372.12h-4.91M260.89,387.66h-4.91M255.99,353.31h-2.45M1373.17,953.61l0,-68.7M1376.44,953.61l0,-68.7M1560.46,953.61l0,-68.7M1563.73,953.61l0,-68.7M1495.03,1019.04h-53.16M1495.03,1022.31h-53.16M1488.49,950.34h-40.07M1445.14,1022.31l0,6.54M1460.68,1022.31l0,6.54M1441.87,950.34h-65.43M1376.44,953.61h-3.27M1373.17,950.34h-6.54M1445.14,953.61l0,65.43M1445.14,1012.5l0,-58.89M1460.68,950.34l0,68.7M1441.87,1019.04l0,3.27M1491.76,1022.31l0,6.54M1476.22,1022.31l0,6.54M1560.46,950.34h-65.43h65.43M1491.76,953.61l0,65.43M1491.76,1012.5l0,-58.89M1476.22,950.34l0,68.7M1495.03,1019.04l0,3.27M1570.27,950.34h-6.54h6.54M1560.46,953.61h3.27M1488.49,888.18h-40.07M1488.49,891.46h-40.07M1488.49,947.07h-40.07M1495.03,799.86h-53.16M1495.03,803.13h-53.16M1475.4,844.02h-30.26M1460.68,888.18l0,-85.06M1445.14,884.91l0,-81.78M1445.14,903.72h-68.7M1445.14,919.26h-68.7M1445.14,934.8h-68.7M1441.87,888.18h-65.43M1373.17,919.26h-6.54M1373.17,934.8h-6.54M1376.44,884.91h-3.27M1373.17,903.72h-6.54M1445.14,947.07l0,-55.61M1409.16,933.98l0,-45.8M1448.41,947.07l0,-55.61M1445.14,937.26l0,9.81l0,-9.81M1441.87,803.13l0,-3.27M1445.14,799.86l0,-6.54M1460.68,799.86l0,-6.54M1476.22,888.18l0,-85.06M1491.76,884.91l0,-81.78M1560.46,888.18h-65.43M1491.76,934.8h68.7M1491.76,919.26h68.7M1491.76,903.72h68.7M1495.03,888.18h65.43M1491.76,947.07l0,-55.61M1488.49,947.07l0,-55.61M1491.76,937.26l0,9.81l0,-9.81M1563.73,934.8h6.54M1563.73,919.26h6.54M1570.27,888.18h-6.54M1563.73,903.72h6.54M1563.73,888.18h6.54M1560.46,884.91h3.27M1495.03,803.13l0,-3.27M1476.22,799.86l0,-6.54M1491.76,799.86l0,-6.54M260.89,533.24L260.89,256.8" />
<circle id="cv_164" class="nZW sLW_0_5" cx="182.38" cy="493.16" r="1.272582" />
<circle id="cv_165" class="nZW sLW_0_5" cx="219.59" cy="449.82" r="1.272582" />
<circle id="cv_166" class="nZW sLW_0_5" cx="1409.16" cy="888.18" r="1.272582" />
<circle id="cv_167" class="nZW sLW_0_5" cx="1445.14" cy="844.02" r="1.272582" />
</g>
<g style="font-family: simplex, , arial, helvetica, sans-serif" stroke="none" fill="#29A500">
<g font-size="17.034641" stroke="none" fill="#29A500">
<text id="cv_168" transform="scale(0.833333 1) translate(175.85 483.35) " >UP</text>
<text id="cv_169" transform="scale(0.833333 1) translate(252.47 484.7) " >DN</text>
<text id="cv_170" transform="scale(0.833333 1) translate(1678.47 878.37) " >DN</text>
<text id="cv_171" transform="scale(0.833333 1) translate(1704.33 858.74) " >UP</text>
</g>
<g font-size="0.340693" stroke="none" fill="#29A500">
<text id="cv_172" transform="scale(0.833333 1) translate(1733.54 844.32) " >UP</text>
</g>
</g>
<g style="font-family: arial, helvetica, sans-serif" stroke="none" fill="#7F0000">
<g font-size="141.030000" stroke="none" fill="#7F0000">
<text id="cv_173" transform="scale(1.111111 1) translate(434.57 1253.6) rotate(330) " >For Demonstration Purposes Only</text>
<text id="cv_174" transform="scale(1.111111 1) translate(869.15 1253.6) rotate(330) " >Tailor Made Software, Ltd</text>
</g>
</g>
</g>
<g id="layer_WN" class="layer_WN"  cvjs:layerName="WN" cvjs:plottable="YES"
 cvjs:status="ON" visibility="visible">
<g id="cvclr_175" stroke="#808080" fill="none">
<path id="cv_176" class="ZW" d="M24.54,689.86l0,-90.78M16.36,686.58l0,-84.24M73.61,345.13l0,98.14M65.43,348.4l0,91.6M137.81,256.8h99.78M141.08,248.63h93.23" />
</g>
<g style="font-family: arial, helvetica, sans-serif" stroke="none" fill="#7F0000">
<g font-size="141.030000" stroke="none" fill="#7F0000">
<text id="cv_177" transform="scale(1.111111 1) translate(434.57 1253.6) rotate(330) " >For Demonstration Purposes Only</text>
<text id="cv_178" transform="scale(1.111111 1) translate(869.15 1253.6) rotate(330) " >Tailor Made Software, Ltd</text>
</g>
</g>
<g class="WNV" id="cv_Block_WNV_23">
<g id="cvclr_179" stroke="#29A500" fill="none">
<path id="cv_180" class="ZW" d="M20.45,877.14l0,90.78M16.36,964.65l0,-84.24M24.54,877.14l0,90.78" />
</g>
<g id="cvclr_181" stroke="#808080" fill="none">
<path id="cv_182" class="ZW" d="M4.91,964.65l0,-84.24" />
</g>
</g>
<g class="WNH" id="cv_Block_WNH_24">
<g id="cvclr_183" stroke="#808080" fill="none">
<path id="cv_184" class="ZW" d="M234.31,1329.82h-91.6" />
</g>
<g id="cvclr_185" stroke="#29A500" fill="none">
<path id="cv_186" class="ZW" d="M237.59,1314.28h-98.14M234.31,1318.37h-91.6M237.59,1310.2h-98.14" />
</g>
</g>
<g class="WNH" id="cv_Block_WNH_25">
<g id="cvclr_187" stroke="#808080" fill="none">
<path id="cv_188" class="ZW" d="M53.98,1218.6l0,-91.6" />
</g>
<g id="cvclr_189" stroke="#29A500" fill="none">
<path id="cv_190" class="ZW" d="M69.52,1221.87l0,-98.14M65.43,1218.6l0,-91.6M73.61,1221.87l0,-98.14" />
</g>
</g>
<g class="WNH" id="cv_Block_WNH_26">
<g id="cvclr_191" stroke="#808080" fill="none">
<path id="cv_192" class="ZW" d="M380.71,1329.82h-91.6" />
</g>
<g id="cvclr_193" stroke="#29A500" fill="none">
<path id="cv_194" class="ZW" d="M383.98,1314.28h-98.14M380.71,1318.37h-91.6M383.98,1310.2h-98.14" />
</g>
</g>
<g class="WNH" id="cv_Block_WNH_27">
<g id="cvclr_195" stroke="#808080" fill="none">
<path id="cv_196" class="ZW" d="M607.25,1445.96h-91.6" />
</g>
<g id="cvclr_197" stroke="#29A500" fill="none">
<path id="cv_198" class="ZW" d="M610.52,1430.42h-98.14M607.25,1434.51h-91.6M610.52,1426.33h-98.14" />
</g>
</g>
<g class="WNH" id="cv_Block_WNH_28">
<g id="cvclr_199" stroke="#808080" fill="none">
<path id="cv_200" class="ZW" d="M753.65,1445.96h-91.6" />
</g>
<g id="cvclr_201" stroke="#29A500" fill="none">
<path id="cv_202" class="ZW" d="M756.92,1430.42h-98.14M753.65,1434.51h-91.6M756.92,1426.33h-98.14" />
</g>
</g>
<g class="WNV" id="cv_Block_WNV_29">
<g id="cvclr_203" stroke="#29A500" fill="none">
<path id="cv_204" class="ZW" d="M20.45,828.89l0,-90.78M16.36,741.38l0,84.24M24.54,828.89l0,-90.78" />
</g>
<g id="cvclr_205" stroke="#808080" fill="none">
<path id="cv_206" class="ZW" d="M4.91,741.38l0,84.24" />
</g>
</g>
<g class="WNV" id="cv_Block_WNV_30">
<g id="cvclr_207" stroke="#29A500" fill="none">
<path id="cv_208" class="ZW" d="M20.45,738.11l0,90.78M16.36,825.62l0,-84.24M24.54,738.11l0,90.78" />
</g>
<g id="cvclr_209" stroke="#808080" fill="none">
<path id="cv_210" class="ZW" d="M4.91,825.62l0,-84.24" />
</g>
</g>
<g class="WNH" id="cv_Block_WNH_31">
<g id="cvclr_211" stroke="#808080" fill="none">
<path id="cv_212" class="ZW" d="M380.71,237.18h-91.6" />
</g>
<g id="cvclr_213" stroke="#29A500" fill="none">
<path id="cv_214" class="ZW" d="M383.98,252.72h-98.14M380.71,248.63h-91.6M383.98,256.8h-98.14" />
</g>
</g>
<g class="WNH" id="cv_Block_WNH_32">
<g id="cvclr_215" stroke="#808080" fill="none">
<path id="cv_216" class="ZW" d="M607.25,121.04h-91.6" />
</g>
<g id="cvclr_217" stroke="#29A500" fill="none">
<path id="cv_218" class="ZW" d="M610.52,136.58h-98.14M607.25,132.49h-91.6M610.52,140.67h-98.14" />
</g>
</g>
<g class="WNH" id="cv_Block_WNH_33">
<g id="cvclr_219" stroke="#808080" fill="none">
<path id="cv_220" class="ZW" d="M753.65,121.04h-91.6" />
</g>
<g id="cvclr_221" stroke="#29A500" fill="none">
<path id="cv_222" class="ZW" d="M756.92,136.58h-98.14M753.65,132.49h-91.6M756.92,140.67h-98.14" />
</g>
</g>
<g class="WNV" id="cv_Block_WNV_34">
<g id="cvclr_223" stroke="#29A500" fill="none">
<path id="cv_224" class="ZW" d="M2393.85,864.06l0,90.78M2397.94,951.57l0,-84.24M2389.76,864.06l0,90.78" />
</g>
<g id="cvclr_225" stroke="#808080" fill="none">
<path id="cv_226" class="ZW" d="M2409.39,951.57l0,-84.24" />
</g>
</g>
<g class="WNH" id="cv_Block_WNH_35">
<g id="cvclr_227" stroke="#808080" fill="none">
<path id="cv_228" class="ZW" d="M1810.31,1429.6h91.6" />
</g>
<g id="cvclr_229" stroke="#29A500" fill="none">
<path id="cv_230" class="ZW" d="M1807.04,1414.06h98.14M1810.31,1418.15h91.6M1807.04,1409.97h98.14" />
</g>
</g>
<g class="WNH" id="cv_Block_WNH_36">
<g id="cvclr_231" stroke="#808080" fill="none">
<path id="cv_232" class="ZW" d="M1253.35,1562.09h91.6" />
</g>
<g id="cvclr_233" stroke="#29A500" fill="none">
<path id="cv_234" class="ZW" d="M1250.08,1546.55h98.14M1253.35,1550.64h91.6M1250.08,1542.46h98.14" />
</g>
</g>
<g class="WNH" id="cv_Block_WNH_37">
<g id="cvclr_235" stroke="#808080" fill="none">
<path id="cv_236" class="ZW" d="M985.1,1557.19h-91.6" />
</g>
<g id="cvclr_237" stroke="#29A500" fill="none">
<path id="cv_238" class="ZW" d="M988.37,1541.65h-98.14M985.1,1545.74h-91.6M988.37,1537.56h-98.14" />
</g>
</g>
<g class="WNH" id="cv_Block_WNH_38">
<g id="cvclr_239" stroke="#808080" fill="none">
<path id="cv_240" class="ZW" d="M1160.94,1562.09h-91.6" />
</g>
<g id="cvclr_241" stroke="#29A500" fill="none">
<path id="cv_242" class="ZW" d="M1164.21,1546.55h-98.14M1160.94,1550.64h-91.6M1164.21,1542.46h-98.14" />
</g>
</g>
<g class="WNH" id="cv_Block_WNH_39">
<g id="cvclr_243" stroke="#808080" fill="none">
<path id="cv_244" class="ZW" d="M1429.19,1557.19h91.6" />
</g>
<g id="cvclr_245" stroke="#29A500" fill="none">
<path id="cv_246" class="ZW" d="M1425.92,1541.65h98.14M1429.19,1545.74h91.6M1425.92,1537.56h98.14" />
</g>
</g>
<g class="WNH" id="cv_Block_WNH_40">
<g id="cvclr_247" stroke="#808080" fill="none">
<path id="cv_248" class="ZW" d="M1663.92,1429.6h91.6" />
</g>
<g id="cvclr_249" stroke="#29A500" fill="none">
<path id="cv_250" class="ZW" d="M1660.64,1414.06h98.14M1663.92,1418.15h91.6M1660.64,1409.97h98.14" />
</g>
</g>
<g class="WNH" id="cv_Block_WNH_41">
<g id="cvclr_251" stroke="#808080" fill="none">
<path id="cv_252" class="ZW" d="M2036.85,1297.11h91.6" />
</g>
<g id="cvclr_253" stroke="#29A500" fill="none">
<path id="cv_254" class="ZW" d="M2033.58,1281.57h98.14M2036.85,1285.66h91.6M2033.58,1277.48h98.14" />
</g>
</g>
<g class="WNH" id="cv_Block_WNH_42">
<g id="cvclr_255" stroke="#808080" fill="none">
<path id="cv_256" class="ZW" d="M2183.25,1297.11h91.6" />
</g>
<g id="cvclr_257" stroke="#29A500" fill="none">
<path id="cv_258" class="ZW" d="M2179.98,1281.57h98.14M2183.25,1285.66h91.6M2179.98,1277.48h98.14" />
</g>
</g>
<g class="WNH" id="cv_Block_WNH_43">
<g id="cvclr_259" stroke="#808080" fill="none">
<path id="cv_260" class="ZW" d="M2360.31,1107.37l0,91.6" />
</g>
<g id="cvclr_261" stroke="#29A500" fill="none">
<path id="cv_262" class="ZW" d="M2344.78,1104.1l0,98.14M2348.86,1107.37l0,91.6M2340.69,1104.1l0,98.14" />
</g>
</g>
<g class="WNH" id="cv_Block_WNH_44">
<g id="cvclr_263" stroke="#808080" fill="none">
<path id="cv_264" class="ZW" d="M1810.31,137.4h91.6" />
</g>
<g id="cvclr_265" stroke="#29A500" fill="none">
<path id="cv_266" class="ZW" d="M1807.04,152.94h98.14M1810.31,148.85h91.6M1807.04,157.03h98.14" />
</g>
</g>
<g class="WNH" id="cv_Block_WNH_45">
<g id="cvclr_267" stroke="#808080" fill="none">
<path id="cv_268" class="ZW" d="M1253.35,4.91h91.6" />
</g>
<g id="cvclr_269" stroke="#29A500" fill="none">
<path id="cv_270" class="ZW" d="M1250.08,20.45h98.14M1253.35,16.36h91.6M1250.08,24.54h98.14" />
</g>
</g>
<g class="WNH" id="cv_Block_WNH_46">
<g id="cvclr_271" stroke="#808080" fill="none">
<path id="cv_272" class="ZW" d="M985.1,9.81h-91.6" />
</g>
<g id="cvclr_273" stroke="#29A500" fill="none">
<path id="cv_274" class="ZW" d="M988.37,25.35h-98.14M985.1,21.26h-91.6M988.37,29.44h-98.14" />
</g>
</g>
<g class="WNH" id="cv_Block_WNH_47">
<g id="cvclr_275" stroke="#808080" fill="none">
<path id="cv_276" class="ZW" d="M1160.94,4.91h-91.6" />
</g>
<g id="cvclr_277" stroke="#29A500" fill="none">
<path id="cv_278" class="ZW" d="M1164.21,20.45h-98.14M1160.94,16.36h-91.6M1164.21,24.54h-98.14" />
</g>
</g>
<g class="WNH" id="cv_Block_WNH_48">
<g id="cvclr_279" stroke="#808080" fill="none">
<path id="cv_280" class="ZW" d="M1429.19,9.81h91.6" />
</g>
<g id="cvclr_281" stroke="#29A500" fill="none">
<path id="cv_282" class="ZW" d="M1425.92,25.35h98.14M1429.19,21.26h91.6M1425.92,29.44h98.14" />
</g>
</g>
<g class="WNH" id="cv_Block_WNH_49">
<g id="cvclr_283" stroke="#808080" fill="none">
<path id="cv_284" class="ZW" d="M1663.92,137.4h91.6" />
</g>
<g id="cvclr_285" stroke="#29A500" fill="none">
<path id="cv_286" class="ZW" d="M1660.64,152.94h98.14M1663.92,148.85h91.6M1660.64,157.03h98.14" />
</g>
</g>
<g class="WNV" id="cv_Block_WNV_50">
<g id="cvclr_287" stroke="#29A500" fill="none">
<path id="cv_288" class="ZW" d="M2393.85,702.94l0,-90.78M2397.94,615.43l0,84.24M2389.76,702.94l0,-90.78" />
</g>
<g id="cvclr_289" stroke="#808080" fill="none">
<path id="cv_290" class="ZW" d="M2409.39,615.43l0,84.24" />
</g>
</g>
<g class="WNV" id="cv_Block_WNV_51">
<g id="cvclr_291" stroke="#29A500" fill="none">
<path id="cv_292" class="ZW" d="M2393.85,828.89l0,-90.78M2397.94,741.38l0,84.24M2389.76,828.89l0,-90.78" />
</g>
<g id="cvclr_293" stroke="#808080" fill="none">
<path id="cv_294" class="ZW" d="M2409.39,741.38l0,84.24" />
</g>
</g>
<g class="WNV" id="cv_Block_WNV_52">
<g id="cvclr_295" stroke="#29A500" fill="none">
<path id="cv_296" class="ZW" d="M2393.85,738.11l0,90.78M2397.94,825.62l0,-84.24M2389.76,738.11l0,90.78" />
</g>
<g id="cvclr_297" stroke="#808080" fill="none">
<path id="cv_298" class="ZW" d="M2409.39,825.62l0,-84.24" />
</g>
</g>
<g class="WNH" id="cv_Block_WNH_53">
<g id="cvclr_299" stroke="#808080" fill="none">
<path id="cv_300" class="ZW" d="M2360.31,459.63l0,-91.6" />
</g>
<g id="cvclr_301" stroke="#29A500" fill="none">
<path id="cv_302" class="ZW" d="M2344.78,462.9l0,-98.14M2348.86,459.63l0,-91.6M2340.69,462.9l0,-98.14" />
</g>
</g>
<g class="WNH" id="cv_Block_WNH_54">
<g id="cvclr_303" stroke="#808080" fill="none">
<path id="cv_304" class="ZW" d="M2036.85,269.89h91.6" />
</g>
<g id="cvclr_305" stroke="#29A500" fill="none">
<path id="cv_306" class="ZW" d="M2033.58,285.43h98.14M2036.85,281.34h91.6M2033.58,289.52h98.14" />
</g>
</g>
<g class="WNH" id="cv_Block_WNH_55">
<g id="cvclr_307" stroke="#808080" fill="none">
<path id="cv_308" class="ZW" d="M2183.25,269.89h91.6" />
</g>
<g id="cvclr_309" stroke="#29A500" fill="none">
<path id="cv_310" class="ZW" d="M2179.98,285.43h98.14M2183.25,281.34h91.6M2179.98,289.52h98.14" />
</g>
</g>
</g>
<g id="layer_PL_2D_ELVTR_block" class="layer_PL_2D_ELVTR_block"  cvjs:layerName="PL-ELVTR" cvjs:plottable="YES"
 cvjs:status="ON" visibility="visible">
<g class="ELEV" id="cv_Block_ELEV_56">
<g id="cvclr_311" stroke="#29A500" fill="none">
<path id="cv_312" class=" ZW" d="M666.96,1025.58V917.63H804.36V1025.58H666.96" />
<path id="cv_313" class="ZW" d="M804.36,917.63L666.96,1025.58M666.96,917.63L804.36,1025.58" />
</g>
</g>
<g class="ELEV" id="cv_Block_ELEV_57">
<g id="cvclr_314" stroke="#29A500" fill="none">
<path id="cv_315" class=" ZW" d="M666.96,541.47V649.43H804.36V541.47H666.96" />
<path id="cv_316" class="ZW" d="M804.36,649.43L666.96,541.47M666.96,649.43L804.36,541.47" />
</g>
</g>
<g class="ELEV" id="cv_Block_ELEV_58">
<g id="cvclr_317" stroke="#29A500" fill="none">
<path id="cv_318" class=" ZW" d="M491.12,1025.58V917.63H628.52V1025.58H491.12" />
<path id="cv_319" class="ZW" d="M628.52,917.63L491.12,1025.58M491.12,917.63L628.52,1025.58" />
</g>
</g>
<g class="ELEV" id="cv_Block_ELEV_59">
<g id="cvclr_320" stroke="#29A500" fill="none">
<path id="cv_321" class=" ZW" d="M491.12,541.47V649.43H628.52V541.47H491.12" />
<path id="cv_322" class="ZW" d="M628.52,649.43L491.12,541.47M491.12,649.43L628.52,541.47" />
</g>
</g>
<g class="ELEV" id="cv_Block_ELEV_60">
<g id="cvclr_323" stroke="#29A500" fill="none">
<path id="cv_324" class=" ZW" d="M864.06,1025.58V917.63H1001.46V1025.58H864.06" />
<path id="cv_325" class="ZW" d="M1001.46,917.63L864.06,1025.58M864.06,917.63L1001.46,1025.58" />
</g>
</g>
<g class="ELEV" id="cv_Block_ELEV_61">
<g id="cvclr_326" stroke="#29A500" fill="none">
<path id="cv_327" class=" ZW" d="M1039.9,1025.58V917.63H1177.29V1025.58H1039.9" />
<path id="cv_328" class="ZW" d="M1177.29,917.63L1039.9,1025.58M1039.9,917.63L1177.29,1025.58" />
</g>
</g>
<g class="ELEV" id="cv_Block_ELEV_62">
<g id="cvclr_329" stroke="#29A500" fill="none">
<path id="cv_330" class=" ZW" d="M864.06,541.47V649.43H1001.46V541.47H864.06" />
<path id="cv_331" class="ZW" d="M1001.46,649.43L864.06,541.47M864.06,649.43L1001.46,541.47" />
</g>
</g>
<g class="ELEV" id="cv_Block_ELEV_63">
<g id="cvclr_332" stroke="#29A500" fill="none">
<path id="cv_333" class=" ZW" d="M1039.9,541.47V649.43H1177.29V541.47H1039.9" />
<path id="cv_334" class="ZW" d="M1177.29,649.43L1039.9,541.47M1039.9,649.43L1177.29,541.47" />
</g>
</g>
</g>
</g></svg>